<svg width="2036" height="1792" viewBox="0 0 2036 1792" fill="none" xmlns="http://www.w3.org/2000/svg">
<path d="M269.075 239.15H272.408C275.742 239.15 282.408 239.15 285.742 315.421C289.075 391.692 289.075 544.233 311.535 620.504C333.996 696.775 378.917 696.775 401.377 696.775H423.838" fill="black"/>
<path d="M736.713 995.15H762.51C788.308 995.15 839.904 995.15 865.702 926.608C891.5 858.067 891.5 720.983 896.032 652.442C900.564 583.9 909.627 583.9 914.159 583.9H918.691" fill="black"/>
<path d="M736.713 371.9H762.51C788.308 371.9 839.904 371.9 865.702 367.483C891.5 363.067 891.5 354.233 896.032 349.817C900.564 345.4 909.627 345.4 914.159 345.4H918.691" fill="black"/>
<path d="M26.4751 0.649902H269.075V358.4H26.4751" fill="white"/>
<path d="M26.4751 0.649902C84.3504 0.649902 142.226 0.649902 269.075 0.649902M26.4751 0.649902C101.589 0.649902 176.704 0.649902 269.075 0.649902M26.4751 0.649902C26.4751 144.414 26.4751 251.407 26.4751 358.4M26.4751 0.649902C26.4751 178.197 26.4751 268.299 26.4751 358.4M269.075 0.649902C269.075 76.8852 269.075 153.121 269.075 358.4M269.075 0.649902C269.075 102.252 269.075 203.853 269.075 358.4M269.075 358.4C173.587 358.4 78.0981 358.4 26.4751 358.4M269.075 358.4C181.549 358.4 94.0235 358.4 26.4751 358.4" stroke="#28253D" stroke-width="1.3"/>
<path d="M26.4751 40.3999C85.8995 40.3999 145.324 40.3999 269.075 40.3999M26.4751 40.3999C102.399 40.3999 178.322 40.3999 269.075 40.3999M26.4751 40.3999C26.4751 55.5365 26.4751 67.8432 26.4751 80.1499M26.4751 40.3999C26.4751 58.8133 26.4751 69.4816 26.4751 80.1499M269.075 40.3999C269.075 54.1868 269.075 67.9737 269.075 80.1499M269.075 40.3999C269.075 50.3813 269.075 60.3628 269.075 80.1499M269.075 80.1499C180.582 80.1499 92.0891 80.1499 26.4751 80.1499M269.075 80.1499C174.243 80.1499 79.4105 80.1499 26.4751 80.1499" stroke="#28253D" stroke-width="1.3"/>
<path d="M26.4751 80.1499C106.567 80.1499 186.658 80.1499 269.075 80.1499M26.4751 80.1499C79.1953 80.1499 131.915 80.1499 269.075 80.1499M26.4751 80.1499C26.4751 89.5621 26.4751 104.731 26.4751 119.9M26.4751 80.1499C26.4751 90.2624 26.4751 105.081 26.4751 119.9M269.075 80.1499C269.075 94.6265 269.075 109.103 269.075 119.9M269.075 80.1499C269.075 93.3998 269.075 106.65 269.075 119.9M269.075 119.9C189.078 119.9 109.08 119.9 26.4751 119.9M269.075 119.9C193.548 119.9 118.022 119.9 26.4751 119.9" stroke="#28253D" stroke-width="1.3"/>
<path d="M26.4751 119.9C109.126 119.9 191.776 119.9 269.075 119.9M26.4751 119.9C106.596 119.9 186.717 119.9 269.075 119.9M26.4751 119.9C26.4751 136.886 26.4751 148.268 26.4751 159.65M26.4751 119.9C26.4751 143.394 26.4751 151.522 26.4751 159.65M269.075 119.9C269.075 129.358 269.075 138.816 269.075 159.65M269.075 119.9C269.075 129.355 269.075 138.81 269.075 159.65M269.075 159.65C182.531 159.65 95.9859 159.65 26.4751 159.65M269.075 159.65C202.674 159.65 136.273 159.65 26.4751 159.65" stroke="#28253D" stroke-width="1.3"/>
<path d="M26.4751 159.65C97.4836 159.65 168.492 159.65 269.075 159.65M26.4751 159.65C87.0002 159.65 147.525 159.65 269.075 159.65M26.4751 159.65C26.4751 172.534 26.4751 185.967 26.4751 199.4M26.4751 159.65C26.4751 180.401 26.4751 189.9 26.4751 199.4M269.075 159.65C269.075 174.953 269.075 190.257 269.075 199.4M269.075 159.65C269.075 168.04 269.075 176.431 269.075 199.4M269.075 199.4C190.941 199.4 112.807 199.4 26.4751 199.4M269.075 199.4C215.674 199.4 162.272 199.4 26.4751 199.4" stroke="#28253D" stroke-width="1.3"/>
<path d="M26.4751 199.4C115.151 199.4 203.826 199.4 269.075 199.4M26.4751 199.4C85.5604 199.4 144.646 199.4 269.075 199.4M26.4751 199.4C26.4751 222.8 26.4751 230.975 26.4751 239.15M26.4751 199.4C26.4751 214.202 26.4751 226.676 26.4751 239.15M269.075 199.4C269.075 208.366 269.075 217.332 269.075 239.15M269.075 199.4C269.075 210.798 269.075 222.196 269.075 239.15M269.075 239.15C199.271 239.15 129.467 239.15 26.4751 239.15M269.075 239.15C212 239.15 154.925 239.15 26.4751 239.15" stroke="#28253D" stroke-width="1.3"/>
<path d="M26.4751 239.15C91.7648 239.15 157.054 239.15 269.075 239.15M26.4751 239.15C100.005 239.15 173.534 239.15 269.075 239.15M26.4751 239.15C26.4751 258.449 26.4751 268.675 26.4751 278.9M26.4751 239.15C26.4751 251.083 26.4751 264.991 26.4751 278.9M269.075 239.15C269.075 247.183 269.075 255.216 269.075 278.9M269.075 239.15C269.075 248.507 269.075 257.863 269.075 278.9M269.075 278.9C192.158 278.9 115.24 278.9 26.4751 278.9M269.075 278.9C177.462 278.9 85.8479 278.9 26.4751 278.9" stroke="#28253D" stroke-width="1.3"/>
<path d="M26.4751 278.9C97.209 278.9 167.943 278.9 269.075 278.9M26.4751 278.9C98.0916 278.9 169.708 278.9 269.075 278.9M26.4751 278.9C26.4751 288.376 26.4751 303.513 26.4751 318.65M26.4751 278.9C26.4751 300.881 26.4751 309.766 26.4751 318.65M269.075 278.9C269.075 286.888 269.075 294.877 269.075 318.65M269.075 278.9C269.075 294.663 269.075 310.427 269.075 318.65M269.075 318.65C194.776 318.65 120.476 318.65 26.4751 318.65M269.075 318.65C199.395 318.65 129.714 318.65 26.4751 318.65" stroke="#28253D" stroke-width="1.3"/>
<path d="M26.4751 318.65C103.326 318.65 180.178 318.65 269.075 318.65M26.4751 318.65C99.6854 318.65 172.896 318.65 269.075 318.65M26.4751 318.65C26.4751 336.321 26.4751 347.36 26.4751 358.4M26.4751 318.65C26.4751 341.949 26.4751 350.174 26.4751 358.4M269.075 318.65C269.075 331.206 269.075 343.761 269.075 358.4M269.075 318.65C269.075 329.477 269.075 340.304 269.075 358.4M269.075 358.4C180.233 358.4 91.3918 358.4 26.4751 358.4M269.075 358.4C210.124 358.4 151.173 358.4 26.4751 358.4" stroke="#28253D" stroke-width="1.3"/>
<path d="M26.4751 40.3999C26.4751 40.3999 26.4751 40.3999 26.4751 40.3999ZM26.4751 40.3999C92.0235 40.3999 157.572 40.4 269.075 40.4M26.4751 40.3999C107.928 40.3999 189.381 40.4 269.075 40.4M26.4751 40.3999C167.086 40.3999 218.081 40.4 269.075 40.4M26.4751 40.3999C158.417 40.3999 213.746 40.4 269.075 40.4M269.075 40.4C269.075 40.4 269.075 40.4 269.075 40.4Z" stroke="#28253D" stroke-width="1.3"/>
<path d="M126.525 40.3999C126.525 40.3999 126.525 40.3999 126.525 40.3999ZM126.525 40.3999C126.525 124.41 126.525 208.42 126.525 358.4M126.525 40.3999C126.525 152.951 126.525 265.503 126.525 358.4M126.525 40.3999C126.525 215.205 126.525 286.802 126.525 358.4M126.525 40.3999C126.525 119.338 126.525 238.869 126.525 358.4M126.525 358.4C126.525 358.4 126.525 358.4 126.525 358.4Z" stroke="#28253D" stroke-width="1.3"/>
<path d="M227.275 40.3999C227.275 40.3999 227.275 40.3999 227.275 40.3999ZM227.275 40.3999C227.275 125.026 227.275 209.652 227.275 358.4M227.275 40.3999C227.275 164.555 227.275 288.71 227.275 358.4M227.275 40.3999C227.275 108.361 227.275 233.381 227.275 358.4M227.275 40.3999C227.275 187.994 227.275 273.197 227.275 358.4M227.275 358.4C227.275 358.4 227.275 358.4 227.275 358.4Z" stroke="#28253D" stroke-width="1.3"/>
<path d="M26.4751 40.3999C26.4751 40.3999 26.4751 40.3998 26.4751 40.3999ZM26.4751 40.3999C117.883 40.3999 209.291 40.4 269.075 40.4M26.4751 40.3999C114.537 40.3999 202.599 40.4 269.075 40.4M26.4751 40.3999C78.7886 40.3999 173.932 40.4 269.075 40.4M26.4751 40.3999C140.978 40.3999 205.026 40.4 269.075 40.4M269.075 40.4C269.075 40.4 269.075 40.4 269.075 40.4Z" stroke="#28253D" stroke-width="1.3"/>
<path d="M449.038 279.15H736.713V557.4H449.038" fill="white"/>
<path d="M449.038 279.15C556.483 279.15 663.929 279.15 736.713 279.15M449.038 279.15C560.855 279.15 672.672 279.15 736.713 279.15M449.038 279.15C449.038 442.95 449.038 500.175 449.038 557.4M449.038 279.15C449.038 357.592 449.038 457.496 449.038 557.4M736.713 279.15C736.713 371.703 736.713 464.256 736.713 557.4M736.713 279.15C736.713 367.374 736.713 455.599 736.713 557.4M736.713 557.4C667.761 557.4 598.809 557.4 449.038 557.4M736.713 557.4C664.572 557.4 592.432 557.4 449.038 557.4" stroke="#28253D" stroke-width="1.3"/>
<path d="M449.038 318.9C513.083 318.9 577.129 318.9 736.713 318.9M449.038 318.9C510.928 318.9 572.819 318.9 736.713 318.9M449.038 318.9C449.038 337.469 449.038 348.06 449.038 358.65M449.038 318.9C449.038 327.52 449.038 343.085 449.038 358.65M736.713 318.9C736.713 329.912 736.713 340.925 736.713 358.65M736.713 318.9C736.713 329.597 736.713 340.294 736.713 358.65M736.713 358.65C660.636 358.65 584.558 358.65 449.038 358.65M736.713 358.65C642.584 358.65 548.456 358.65 449.038 358.65" stroke="#28253D" stroke-width="1.3"/>
<path d="M449.038 358.65C550.308 358.65 651.579 358.65 736.713 358.65M449.038 358.65C536.038 358.65 623.039 358.65 736.713 358.65M449.038 358.65C449.038 381.131 449.038 389.765 449.038 398.4M449.038 358.65C449.038 376.399 449.038 387.4 449.038 398.4M736.713 358.65C736.713 367.558 736.713 376.467 736.713 398.4M736.713 358.65C736.713 371.524 736.713 384.398 736.713 398.4M736.713 398.4C642.415 398.4 548.117 398.4 449.038 398.4M736.713 398.4C650.128 398.4 563.543 398.4 449.038 398.4" stroke="#28253D" stroke-width="1.3"/>
<path d="M449.038 398.4C525.46 398.4 601.882 398.4 736.713 398.4M449.038 398.4C561.476 398.4 673.914 398.4 736.713 398.4M449.038 398.4C449.038 409.336 449.038 423.743 449.038 438.15M449.038 398.4C449.038 418.234 449.038 428.192 449.038 438.15M736.713 398.4C736.713 406.431 736.713 414.463 736.713 438.15M736.713 398.4C736.713 413.893 736.713 429.386 736.713 438.15M736.713 438.15C652.285 438.15 567.858 438.15 449.038 438.15M736.713 438.15C634.849 438.15 532.985 438.15 449.038 438.15" stroke="#28253D" stroke-width="1.3"/>
<path d="M449.038 438.15C521.69 438.15 594.342 438.15 736.713 438.15M449.038 438.15C554.269 438.15 659.501 438.15 736.713 438.15M449.038 438.15C449.038 461.289 449.038 469.594 449.038 477.9M449.038 438.15C449.038 456.229 449.038 467.064 449.038 477.9M736.713 438.15C736.713 452.713 736.713 467.276 736.713 477.9M736.713 438.15C736.713 452.33 736.713 466.51 736.713 477.9M736.713 477.9C633.005 477.9 529.296 477.9 449.038 477.9M736.713 477.9C673.813 477.9 610.913 477.9 449.038 477.9" stroke="#28253D" stroke-width="1.3"/>
<path d="M449.038 477.9C559.195 477.9 669.353 477.9 736.713 477.9M449.038 477.9C539.933 477.9 630.828 477.9 736.713 477.9M449.038 477.9C449.038 491.933 449.038 504.792 449.038 517.65M449.038 477.9C449.038 490.672 449.038 504.161 449.038 517.65M736.713 477.9C736.713 492.324 736.713 506.749 736.713 517.65M736.713 477.9C736.713 487.731 736.713 497.563 736.713 517.65M736.713 517.65C674.093 517.65 611.474 517.65 449.038 517.65M736.713 517.65C658.426 517.65 580.14 517.65 449.038 517.65" stroke="#28253D" stroke-width="1.3"/>
<path d="M449.038 517.65C519.98 517.65 590.922 517.65 736.713 517.65M449.038 517.65C524.014 517.65 598.989 517.65 736.713 517.65M449.038 517.65C449.038 538.612 449.038 548.006 449.038 557.4M449.038 517.65C449.038 538.498 449.038 547.949 449.038 557.4M736.713 517.65C736.713 532.186 736.713 546.723 736.713 557.4M736.713 517.65C736.713 528.591 736.713 539.531 736.713 557.4M736.713 557.4C632.333 557.4 527.953 557.4 449.038 557.4M736.713 557.4C633.833 557.4 530.953 557.4 449.038 557.4" stroke="#28253D" stroke-width="1.3"/>
<path d="M449.038 318.9C449.038 318.9 449.038 318.9 449.038 318.9ZM449.038 318.9C561.107 318.9 673.176 318.9 736.713 318.9M449.038 318.9C509.729 318.9 570.421 318.9 736.713 318.9M449.038 318.9C610.146 318.9 673.43 318.9 736.713 318.9M449.038 318.9C565.382 318.9 651.047 318.9 736.713 318.9M736.713 318.9C736.713 318.9 736.713 318.9 736.713 318.9Z" stroke="#28253D" stroke-width="1.3"/>
<path d="M526.688 318.9C526.688 318.9 526.687 318.9 526.688 318.9ZM526.688 318.9C526.688 375.349 526.688 431.799 526.688 557.4M526.688 318.9C526.688 411.675 526.688 504.451 526.688 557.4M526.688 318.9C526.688 413.059 526.688 485.229 526.688 557.4M526.688 318.9C526.688 399.085 526.688 478.242 526.688 557.4M526.688 557.4C526.688 557.4 526.688 557.4 526.688 557.4Z" stroke="#28253D" stroke-width="1.3"/>
<path d="M694.913 318.9C694.913 318.9 694.913 318.9 694.913 318.9ZM694.913 318.9C694.913 406.597 694.913 494.295 694.913 557.4M694.913 318.9C694.913 406.412 694.913 493.924 694.913 557.4M694.913 318.9C694.913 387.249 694.913 472.324 694.913 557.4M694.913 318.9C694.913 401.681 694.913 479.541 694.913 557.4M694.913 557.4C694.913 557.4 694.913 557.4 694.913 557.4Z" stroke="#28253D" stroke-width="1.3"/>
<path d="M449.038 318.9C449.038 318.9 449.038 318.9 449.038 318.9ZM449.038 318.9C518.72 318.9 588.403 318.9 736.713 318.9M449.038 318.9C519.687 318.9 590.337 318.9 736.713 318.9M449.038 318.9C556.503 318.9 646.608 318.9 736.713 318.9M449.038 318.9C524.738 318.9 630.725 318.9 736.713 318.9M736.713 318.9C736.713 318.9 736.713 318.9 736.713 318.9Z" stroke="#28253D" stroke-width="1.3"/>
<path d="M13.8872 836.15H269.075V1313.15H13.8872" fill="white"/>
<path d="M13.8872 836.15C76.0715 836.15 138.256 836.15 269.075 836.15M13.8872 836.15C98.4414 836.15 182.996 836.15 269.075 836.15M13.8872 836.15C13.8872 936.478 13.8872 1124.81 13.8872 1313.15M13.8872 836.15C13.8872 1048 13.8872 1180.57 13.8872 1313.15M269.075 836.15C269.075 936.618 269.075 1037.09 269.075 1313.15M269.075 836.15C269.075 1018.77 269.075 1201.39 269.075 1313.15M269.075 1313.15C185.682 1313.15 102.289 1313.15 13.8872 1313.15M269.075 1313.15C187.389 1313.15 105.704 1313.15 13.8872 1313.15" stroke="#28253D" stroke-width="1.3"/>
<path d="M13.8872 875.9C93.5281 875.9 173.169 875.9 269.075 875.9M13.8872 875.9C113.34 875.9 212.794 875.9 269.075 875.9M13.8872 875.9C13.8872 899.03 13.8872 907.34 13.8872 915.65M13.8872 875.9C13.8872 888.651 13.8872 902.15 13.8872 915.65M269.075 875.9C269.075 891.228 269.075 906.555 269.075 915.65M269.075 875.9C269.075 890.69 269.075 905.479 269.075 915.65M269.075 915.65C179.349 915.65 89.6228 915.65 13.8872 915.65M269.075 915.65C185.94 915.65 102.806 915.65 13.8872 915.65" stroke="#28253D" stroke-width="1.3"/>
<path d="M13.8872 915.65C93.6627 915.65 173.438 915.65 269.075 915.65M13.8872 915.65C70.4695 915.65 127.052 915.65 269.075 915.65M13.8872 915.65C13.8872 938.973 13.8872 947.186 13.8872 955.4M13.8872 915.65C13.8872 934.687 13.8872 945.043 13.8872 955.4M269.075 915.65C269.075 925.907 269.075 936.164 269.075 955.4M269.075 915.65C269.075 924.712 269.075 933.774 269.075 955.4M269.075 955.4C193.235 955.4 117.395 955.4 13.8872 955.4M269.075 955.4C204.501 955.4 139.927 955.4 13.8872 955.4" stroke="#28253D" stroke-width="1.3"/>
<path d="M13.8872 955.4C98.4841 955.4 183.081 955.4 269.075 955.4M13.8872 955.4C92.691 955.4 171.495 955.4 269.075 955.4M13.8872 955.4C13.8872 964.59 13.8872 979.87 13.8872 995.15M13.8872 955.4C13.8872 965.373 13.8872 980.262 13.8872 995.15M269.075 955.4C269.075 970.427 269.075 985.454 269.075 995.15M269.075 955.4C269.075 970.253 269.075 985.107 269.075 995.15M269.075 995.15C180.045 995.15 91.0148 995.15 13.8872 995.15M269.075 995.15C214.149 995.15 159.223 995.15 13.8872 995.15" stroke="#28253D" stroke-width="1.3"/>
<path d="M13.8872 995.15C83.8549 995.15 153.823 995.15 269.075 995.15M13.8872 995.15C82.9955 995.15 152.104 995.15 269.075 995.15M13.8872 995.15C13.8872 1015.92 13.8872 1025.41 13.8872 1034.9M13.8872 995.15C13.8872 1005.45 13.8872 1020.18 13.8872 1034.9M269.075 995.15C269.075 1007.64 269.075 1020.14 269.075 1034.9M269.075 995.15C269.075 1005.42 269.075 1015.69 269.075 1034.9M269.075 1034.9C202.445 1034.9 135.815 1034.9 13.8872 1034.9M269.075 1034.9C175.699 1034.9 82.3225 1034.9 13.8872 1034.9" stroke="#28253D" stroke-width="1.3"/>
<path d="M13.8872 1034.9C108.608 1034.9 203.328 1034.9 269.075 1034.9M13.8872 1034.9C89.3814 1034.9 164.876 1034.9 269.075 1034.9M13.8872 1034.9C13.8872 1048.28 13.8872 1061.46 13.8872 1074.65M13.8872 1034.9C13.8872 1053.21 13.8872 1063.93 13.8872 1074.65M269.075 1034.9C269.075 1048.34 269.075 1061.77 269.075 1074.65M269.075 1034.9C269.075 1046.75 269.075 1058.6 269.075 1074.65M269.075 1074.65C177.228 1074.65 85.3806 1074.65 13.8872 1074.65M269.075 1074.65C195.375 1074.65 121.675 1074.65 13.8872 1074.65" stroke="#28253D" stroke-width="1.3"/>
<path d="M13.8872 1074.65C100.999 1074.65 188.11 1074.65 269.075 1074.65M13.8872 1074.65C85.61 1074.65 157.333 1074.65 269.075 1074.65M13.8872 1074.65C13.8872 1088.67 13.8872 1101.54 13.8872 1114.4M13.8872 1074.65C13.8872 1089.1 13.8872 1101.75 13.8872 1114.4M269.075 1074.65C269.075 1085.01 269.075 1095.37 269.075 1114.4M269.075 1074.65C269.075 1088.33 269.075 1102.02 269.075 1114.4M269.075 1114.4C212.782 1114.4 156.49 1114.4 13.8872 1114.4M269.075 1114.4C176.935 1114.4 84.7958 1114.4 13.8872 1114.4" stroke="#28253D" stroke-width="1.3"/>
<path d="M13.8872 1114.4C79.5851 1114.4 145.283 1114.4 269.075 1114.4M13.8872 1114.4C114.09 1114.4 214.293 1114.4 269.075 1114.4M13.8872 1114.4C13.8872 1135.84 13.8872 1145 13.8872 1154.15M13.8872 1114.4C13.8872 1136.58 13.8872 1145.37 13.8872 1154.15M269.075 1114.4C269.075 1129.97 269.075 1145.55 269.075 1154.15M269.075 1114.4C269.075 1122.4 269.075 1130.4 269.075 1154.15M269.075 1154.15C194.902 1154.15 120.728 1154.15 13.8872 1154.15M269.075 1154.15C206.968 1154.15 144.861 1154.15 13.8872 1154.15" stroke="#28253D" stroke-width="1.3"/>
<path d="M13.8872 1154.15C110.868 1154.15 207.848 1154.15 269.075 1154.15M13.8872 1154.15C98.6297 1154.15 183.372 1154.15 269.075 1154.15M13.8872 1154.15C13.8872 1168.91 13.8872 1181.4 13.8872 1193.9M13.8872 1154.15C13.8872 1165.29 13.8872 1179.59 13.8872 1193.9M269.075 1154.15C269.075 1166.59 269.075 1179.03 269.075 1193.9M269.075 1154.15C269.075 1165.54 269.075 1176.93 269.075 1193.9M269.075 1193.9C173.585 1193.9 78.0957 1193.9 13.8872 1193.9M269.075 1193.9C169.663 1193.9 70.2523 1193.9 13.8872 1193.9" stroke="#28253D" stroke-width="1.3"/>
<path d="M13.8872 1193.9C100.138 1193.9 186.389 1193.9 269.075 1193.9M13.8872 1193.9C109.885 1193.9 205.882 1193.9 269.075 1193.9M13.8872 1193.9C13.8872 1208.94 13.8872 1221.29 13.8872 1233.65M13.8872 1193.9C13.8872 1213.3 13.8872 1223.47 13.8872 1233.65M269.075 1193.9C269.075 1206.73 269.075 1219.55 269.075 1233.65M269.075 1193.9C269.075 1204.78 269.075 1215.65 269.075 1233.65M269.075 1233.65C210.048 1233.65 151.02 1233.65 13.8872 1233.65M269.075 1233.65C216.51 1233.65 163.946 1233.65 13.8872 1233.65" stroke="#28253D" stroke-width="1.3"/>
<path d="M13.8872 1233.65C68.9588 1233.65 124.03 1233.65 269.075 1233.65M13.8872 1233.65C109.158 1233.65 204.429 1233.65 269.075 1233.65M13.8872 1233.65C13.8872 1244.41 13.8872 1258.91 13.8872 1273.4M13.8872 1233.65C13.8872 1257.08 13.8872 1265.24 13.8872 1273.4M269.075 1233.65C269.075 1246.65 269.075 1259.66 269.075 1273.4M269.075 1233.65C269.075 1249.06 269.075 1264.48 269.075 1273.4M269.075 1273.4C171.841 1273.4 74.6073 1273.4 13.8872 1273.4M269.075 1273.4C194.123 1273.4 119.172 1273.4 13.8872 1273.4" stroke="#28253D" stroke-width="1.3"/>
<path d="M13.8872 1273.4C110.822 1273.4 207.757 1273.4 269.075 1273.4M13.8872 1273.4C89.5119 1273.4 165.137 1273.4 269.075 1273.4M13.8872 1273.4C13.8872 1282.77 13.8872 1297.96 13.8872 1313.15M13.8872 1273.4C13.8872 1292.4 13.8872 1302.77 13.8872 1313.15M269.075 1273.4C269.075 1288.53 269.075 1303.67 269.075 1313.15M269.075 1273.4C269.075 1285.04 269.075 1296.69 269.075 1313.15M269.075 1313.15C191.415 1313.15 113.755 1313.15 13.8872 1313.15M269.075 1313.15C175.563 1313.15 82.0521 1313.15 13.8872 1313.15" stroke="#28253D" stroke-width="1.3"/>
<path fill-rule="evenodd" clip-rule="evenodd" d="M13.8872 875.9L269.075 875.9Z" fill="white"/>
<path d="M13.8872 875.9C13.8872 875.9 13.8872 875.9 13.8872 875.9ZM13.8872 875.9C98.6417 875.9 183.396 875.9 269.075 875.9M13.8872 875.9C81.45 875.9 149.013 875.9 269.075 875.9M13.8872 875.9C87.4242 875.9 178.249 875.9 269.075 875.9M13.8872 875.9C86.8 875.9 177.937 875.9 269.075 875.9M269.075 875.9C269.075 875.9 269.075 875.9 269.075 875.9Z" stroke="#28253D" stroke-width="1.3"/>
<path d="M102.45 875.9C102.45 875.9 102.45 875.9 102.45 875.9ZM102.45 875.9C102.45 1025.66 102.45 1175.41 102.45 1313.15M102.45 875.9C102.45 1017.5 102.45 1159.1 102.45 1313.15M102.45 875.9C102.45 1063.6 102.45 1188.37 102.45 1313.15M102.45 875.9C102.45 1022.16 102.45 1167.66 102.45 1313.15M102.45 1313.15C102.45 1313.15 102.45 1313.15 102.45 1313.15Z" stroke="#28253D" stroke-width="1.3"/>
<path d="M227.275 875.9C227.275 875.9 227.275 875.9 227.275 875.9ZM227.275 875.9C227.275 1046.76 227.275 1217.63 227.275 1313.15M227.275 875.9C227.275 1005.56 227.275 1135.22 227.275 1313.15M227.275 875.9C227.275 1059.28 227.275 1186.22 227.275 1313.15M227.275 875.9C227.275 985.358 227.275 1149.25 227.275 1313.15M227.275 1313.15C227.275 1313.15 227.275 1313.15 227.275 1313.15Z" stroke="#28253D" stroke-width="1.3"/>
<path fill-rule="evenodd" clip-rule="evenodd" d="M13.8872 875.9L269.075 875.9Z" fill="white"/>
<path d="M13.8872 875.9C13.8872 875.9 13.8872 875.9 13.8872 875.9ZM13.8872 875.9C109.839 875.9 205.79 875.9 269.075 875.9M13.8872 875.9C67.7117 875.9 121.536 875.9 269.075 875.9M13.8872 875.9C111.004 875.9 190.039 875.9 269.075 875.9M13.8872 875.9C137.347 875.9 203.211 875.9 269.075 875.9M269.075 875.9C269.075 875.9 269.075 875.9 269.075 875.9Z" stroke="#28253D" stroke-width="1.3"/>
<path d="M423.837 836.15H736.712V1313.15H423.837" fill="white"/>
<path d="M423.837 836.15C507.408 836.15 590.979 836.15 736.712 836.15M423.837 836.15C517.946 836.15 612.055 836.15 736.712 836.15M423.837 836.15C423.837 951.081 423.837 1132.12 423.837 1313.15M423.837 836.15C423.837 967.881 423.837 1140.52 423.837 1313.15M736.712 836.15C736.712 936.563 736.712 1036.98 736.712 1313.15M736.712 836.15C736.712 985.643 736.712 1135.14 736.712 1313.15M736.712 1313.15C670.123 1313.15 603.533 1313.15 423.837 1313.15M736.712 1313.15C625.797 1313.15 514.882 1313.15 423.837 1313.15" stroke="#28253D" stroke-width="1.3"/>
<path d="M423.837 875.9C536.021 875.9 648.205 875.9 736.712 875.9M423.837 875.9C510.572 875.9 597.306 875.9 736.712 875.9M423.837 875.9C423.837 886.293 423.837 900.972 423.837 915.65M423.837 875.9C423.837 893.554 423.837 904.602 423.837 915.65M736.712 875.9C736.712 890.736 736.712 905.573 736.712 915.65M736.712 875.9C736.712 887.139 736.712 898.378 736.712 915.65M736.712 915.65C618.951 915.65 501.189 915.65 423.837 915.65M736.712 915.65C657.871 915.65 579.03 915.65 423.837 915.65" stroke="#28253D" stroke-width="1.3"/>
<path d="M423.837 915.65C545.419 915.65 667 915.65 736.712 915.65M423.837 915.65C516.579 915.65 609.32 915.65 736.712 915.65M423.837 915.65C423.837 935.514 423.837 945.457 423.837 955.4M423.837 915.65C423.837 929.964 423.837 942.682 423.837 955.4M736.712 915.65C736.712 929.345 736.712 943.039 736.712 955.4M736.712 915.65C736.712 928.567 736.712 941.484 736.712 955.4M736.712 955.4C614.99 955.4 493.267 955.4 423.837 955.4M736.712 955.4C618.057 955.4 499.401 955.4 423.837 955.4" stroke="#28253D" stroke-width="1.3"/>
<path d="M423.837 955.4C531.515 955.4 639.194 955.4 736.712 955.4M423.837 955.4C502.072 955.4 580.307 955.4 736.712 955.4M423.837 955.4C423.837 972.938 423.837 984.044 423.837 995.15M423.837 955.4C423.837 965.916 423.837 980.533 423.837 995.15M736.712 955.4C736.712 970.209 736.712 985.018 736.712 995.15M736.712 955.4C736.712 971.049 736.712 986.699 736.712 995.15M736.712 995.15C625.961 995.15 515.209 995.15 423.837 995.15M736.712 995.15C655.236 995.15 573.76 995.15 423.837 995.15" stroke="#28253D" stroke-width="1.3"/>
<path d="M423.837 995.15C491.838 995.15 559.838 995.15 736.712 995.15M423.837 995.15C527.656 995.15 631.475 995.15 736.712 995.15M423.837 995.15C423.837 1015.82 423.837 1025.36 423.837 1034.9M423.837 995.15C423.837 1016.9 423.837 1025.9 423.837 1034.9M736.712 995.15C736.712 1006.76 736.712 1018.37 736.712 1034.9M736.712 995.15C736.712 1007.27 736.712 1019.39 736.712 1034.9M736.712 1034.9C635.67 1034.9 534.628 1034.9 423.837 1034.9M736.712 1034.9C672.761 1034.9 608.809 1034.9 423.837 1034.9" stroke="#28253D" stroke-width="1.3"/>
<path d="M423.837 1034.9C490.661 1034.9 557.485 1034.9 736.712 1034.9M423.837 1034.9C536.907 1034.9 649.976 1034.9 736.712 1034.9M423.837 1034.9C423.837 1046.94 423.837 1060.8 423.837 1074.65M423.837 1034.9C423.837 1048.73 423.837 1061.69 423.837 1074.65M736.712 1034.9C736.712 1046.37 736.712 1057.83 736.712 1074.65M736.712 1034.9C736.712 1044.24 736.712 1053.58 736.712 1074.65M736.712 1074.65C615.689 1074.65 494.665 1074.65 423.837 1074.65M736.712 1074.65C668.426 1074.65 600.139 1074.65 423.837 1074.65" stroke="#28253D" stroke-width="1.3"/>
<path d="M423.837 1074.65C523.146 1074.65 622.454 1074.65 736.712 1074.65M423.837 1074.65C541.335 1074.65 658.833 1074.65 736.712 1074.65M423.837 1074.65C423.837 1089.17 423.837 1101.78 423.837 1114.4M423.837 1074.65C423.837 1089.62 423.837 1102.01 423.837 1114.4M736.712 1074.65C736.712 1084.62 736.712 1094.59 736.712 1114.4M736.712 1074.65C736.712 1085.54 736.712 1096.43 736.712 1114.4M736.712 1114.4C623.022 1114.4 509.332 1114.4 423.837 1114.4M736.712 1114.4C625.233 1114.4 513.753 1114.4 423.837 1114.4" stroke="#28253D" stroke-width="1.3"/>
<path d="M423.837 1114.4C503.979 1114.4 584.121 1114.4 736.712 1114.4M423.837 1114.4C532.792 1114.4 641.746 1114.4 736.712 1114.4M423.837 1114.4C423.837 1129.52 423.837 1141.84 423.837 1154.15M423.837 1114.4C423.837 1133.25 423.837 1143.7 423.837 1154.15M736.712 1114.4C736.712 1123.72 736.712 1133.05 736.712 1154.15M736.712 1114.4C736.712 1124.9 736.712 1135.4 736.712 1154.15M736.712 1154.15C672.391 1154.15 608.069 1154.15 423.837 1154.15M736.712 1154.15C652.56 1154.15 568.408 1154.15 423.837 1154.15" stroke="#28253D" stroke-width="1.3"/>
<path d="M423.837 1154.15C533.52 1154.15 643.202 1154.15 736.712 1154.15M423.837 1154.15C547.951 1154.15 672.064 1154.15 736.712 1154.15M423.837 1154.15C423.837 1162.82 423.837 1178.36 423.837 1193.9M423.837 1154.15C423.837 1172.44 423.837 1183.17 423.837 1193.9M736.712 1154.15C736.712 1164.08 736.712 1174.01 736.712 1193.9M736.712 1154.15C736.712 1168.35 736.712 1182.55 736.712 1193.9M736.712 1193.9C642.481 1193.9 548.249 1193.9 423.837 1193.9M736.712 1193.9C632.678 1193.9 528.644 1193.9 423.837 1193.9" stroke="#28253D" stroke-width="1.3"/>
<path d="M423.837 1193.9C524.788 1193.9 625.739 1193.9 736.712 1193.9M423.837 1193.9C510.711 1193.9 597.585 1193.9 736.712 1193.9M423.837 1193.9C423.837 1209.34 423.837 1221.5 423.837 1233.65M423.837 1193.9C423.837 1216.55 423.837 1225.1 423.837 1233.65M736.712 1193.9C736.712 1203.21 736.712 1212.52 736.712 1233.65M736.712 1193.9C736.712 1209.21 736.712 1224.52 736.712 1233.65M736.712 1233.65C622.233 1233.65 507.753 1233.65 423.837 1233.65M736.712 1233.65C622.644 1233.65 508.575 1233.65 423.837 1233.65" stroke="#28253D" stroke-width="1.3"/>
<path d="M423.837 1233.65C512.089 1233.65 600.34 1233.65 736.712 1233.65M423.837 1233.65C491.987 1233.65 560.137 1233.65 736.712 1233.65M423.837 1233.65C423.837 1243.98 423.837 1258.69 423.837 1273.4M423.837 1233.65C423.837 1246.98 423.837 1260.19 423.837 1273.4M736.712 1233.65C736.712 1243.26 736.712 1252.86 736.712 1273.4M736.712 1233.65C736.712 1244.63 736.712 1255.6 736.712 1273.4M736.712 1273.4C630.9 1273.4 525.089 1273.4 423.837 1273.4M736.712 1273.4C670.821 1273.4 604.929 1273.4 423.837 1273.4" stroke="#28253D" stroke-width="1.3"/>
<path d="M423.837 1273.4C506.204 1273.4 588.572 1273.4 736.712 1273.4M423.837 1273.4C516.429 1273.4 609.02 1273.4 736.712 1273.4M423.837 1273.4C423.837 1287.99 423.837 1300.57 423.837 1313.15M423.837 1273.4C423.837 1295.84 423.837 1304.5 423.837 1313.15M736.712 1273.4C736.712 1288.66 736.712 1303.92 736.712 1313.15M736.712 1273.4C736.712 1282.2 736.712 1291.01 736.712 1313.15M736.712 1313.15C641.308 1313.15 545.904 1313.15 423.837 1313.15M736.712 1313.15C643.523 1313.15 550.333 1313.15 423.837 1313.15" stroke="#28253D" stroke-width="1.3"/>
<path fill-rule="evenodd" clip-rule="evenodd" d="M423.837 875.9L736.712 875.9Z" fill="white"/>
<path d="M423.837 875.9C423.837 875.9 423.837 875.9 423.837 875.9ZM423.837 875.9C528.853 875.9 633.868 875.9 736.712 875.9M423.837 875.9C500.322 875.9 576.806 875.9 736.712 875.9M423.837 875.9C580.308 875.9 658.51 875.9 736.712 875.9M423.837 875.9C547.992 875.9 642.352 875.9 736.712 875.9M736.712 875.9C736.712 875.9 736.712 875.9 736.712 875.9Z" stroke="#28253D" stroke-width="1.3"/>
<path d="M523.887 875.9C523.887 875.9 523.887 875.9 523.887 875.9ZM523.887 875.9C523.887 1046.89 523.887 1217.88 523.887 1313.15M523.887 875.9C523.887 1020.52 523.887 1165.13 523.887 1313.15M523.887 875.9C523.887 1096.98 523.887 1205.07 523.887 1313.15M523.887 875.9C523.887 1079.31 523.887 1196.23 523.887 1313.15M523.887 1313.15C523.887 1313.15 523.887 1313.15 523.887 1313.15Z" stroke="#28253D" stroke-width="1.3"/>
<path d="M694.913 875.9C694.913 875.9 694.913 875.9 694.913 875.9ZM694.913 875.9C694.913 1000.44 694.913 1124.98 694.913 1313.15M694.913 875.9C694.913 964.446 694.913 1052.99 694.913 1313.15M694.913 875.9C694.913 993.364 694.913 1153.26 694.913 1313.15M694.913 875.9C694.913 1053.6 694.913 1183.37 694.913 1313.15M694.913 1313.15C694.913 1313.15 694.913 1313.15 694.913 1313.15Z" stroke="#28253D" stroke-width="1.3"/>
<path fill-rule="evenodd" clip-rule="evenodd" d="M423.837 875.9L736.712 875.9Z" fill="white"/>
<path d="M423.837 875.9C423.837 875.9 423.837 875.9 423.837 875.9ZM423.837 875.9C499.437 875.9 575.036 875.9 736.712 875.9M423.837 875.9C527.614 875.9 631.39 875.9 736.712 875.9M423.837 875.9C525.669 875.9 631.191 875.9 736.712 875.9M423.837 875.9C551.173 875.9 643.943 875.9 736.712 875.9M736.712 875.9C736.712 875.9 736.712 875.9 736.712 875.9Z" stroke="#28253D" stroke-width="1.3"/>
<path d="M918.69 226.15H1173.4V703.15H918.69" fill="white"/>
<path d="M918.69 226.15C990.218 226.15 1061.75 226.15 1173.4 226.15M918.69 226.15C973.402 226.15 1028.11 226.15 1173.4 226.15M918.69 226.15C918.69 418.995 918.69 561.072 918.69 703.15M918.69 226.15C918.69 384.09 918.69 543.62 918.69 703.15M1173.4 226.15C1173.4 335.154 1173.4 444.159 1173.4 703.15M1173.4 226.15C1173.4 355.178 1173.4 484.206 1173.4 703.15M1173.4 703.15C1081.34 703.15 989.272 703.15 918.69 703.15M1173.4 703.15C1106.02 703.15 1038.63 703.15 918.69 703.15" stroke="#28253D" stroke-width="1.3"/>
<path d="M918.69 265.9C971.099 265.9 1023.51 265.9 1173.4 265.9M918.69 265.9C985.399 265.9 1052.11 265.9 1173.4 265.9M918.69 265.9C918.69 279.58 918.69 292.615 918.69 305.65M918.69 265.9C918.69 284.201 918.69 294.926 918.69 305.65M1173.4 265.9C1173.4 278.363 1173.4 290.827 1173.4 305.65M1173.4 265.9C1173.4 279.214 1173.4 292.527 1173.4 305.65M1173.4 305.65C1113.38 305.65 1053.35 305.65 918.69 305.65M1173.4 305.65C1120.53 305.65 1067.67 305.65 918.69 305.65" stroke="#28253D" stroke-width="1.3"/>
<path d="M918.69 305.65C983.002 305.65 1047.31 305.65 1173.4 305.65M918.69 305.65C1003.1 305.65 1087.5 305.65 1173.4 305.65M918.69 305.65C918.69 324.359 918.69 334.879 918.69 345.4M918.69 305.65C918.69 325.004 918.69 335.202 918.69 345.4M1173.4 305.65C1173.4 318.164 1173.4 330.678 1173.4 345.4M1173.4 305.65C1173.4 321.294 1173.4 336.939 1173.4 345.4M1173.4 345.4C1109.61 345.4 1045.82 345.4 918.69 345.4M1173.4 345.4C1089.01 345.4 1004.62 345.4 918.69 345.4" stroke="#28253D" stroke-width="1.3"/>
<path d="M918.69 345.4C1014.67 345.4 1110.65 345.4 1173.4 345.4M918.69 345.4C984.174 345.4 1049.66 345.4 1173.4 345.4M918.69 345.4C918.69 353.647 918.69 369.399 918.69 385.15M918.69 345.4C918.69 369.124 918.69 377.137 918.69 385.15M1173.4 345.4C1173.4 357.496 1173.4 369.591 1173.4 385.15M1173.4 345.4C1173.4 358.304 1173.4 371.209 1173.4 385.15M1173.4 385.15C1122.04 385.15 1070.68 385.15 918.69 385.15M1173.4 385.15C1080.74 385.15 988.074 385.15 918.69 385.15" stroke="#28253D" stroke-width="1.3"/>
<path d="M918.69 385.15C986.326 385.15 1053.96 385.15 1173.4 385.15M918.69 385.15C1016.01 385.15 1113.34 385.15 1173.4 385.15M918.69 385.15C918.69 405.137 918.69 415.019 918.69 424.9M918.69 385.15C918.69 397.026 918.69 410.963 918.69 424.9M1173.4 385.15C1173.4 398.159 1173.4 411.168 1173.4 424.9M1173.4 385.15C1173.4 394.453 1173.4 403.756 1173.4 424.9M1173.4 424.9C1081.91 424.9 990.414 424.9 918.69 424.9M1173.4 424.9C1083.45 424.9 993.491 424.9 918.69 424.9" stroke="#28253D" stroke-width="1.3"/>
<path d="M918.69 424.9C987.89 424.9 1057.09 424.9 1173.4 424.9M918.69 424.9C1004.53 424.9 1090.36 424.9 1173.4 424.9M918.69 424.9C918.69 438.419 918.69 451.535 918.69 464.65M918.69 424.9C918.69 445.511 918.69 455.08 918.69 464.65M1173.4 424.9C1173.4 440.443 1173.4 455.986 1173.4 464.65M1173.4 424.9C1173.4 433.169 1173.4 441.438 1173.4 464.65M1173.4 464.65C1119.12 464.65 1064.85 464.65 918.69 464.65M1173.4 464.65C1101.04 464.65 1028.68 464.65 918.69 464.65" stroke="#28253D" stroke-width="1.3"/>
<path d="M918.69 464.65C1007.29 464.65 1095.88 464.65 1173.4 464.65M918.69 464.65C1012.26 464.65 1105.83 464.65 1173.4 464.65M918.69 464.65C918.69 478.331 918.69 491.365 918.69 504.4M918.69 464.65C918.69 486.353 918.69 495.376 918.69 504.4M1173.4 464.65C1173.4 478.183 1173.4 491.716 1173.4 504.4M1173.4 464.65C1173.4 479.605 1173.4 494.559 1173.4 504.4M1173.4 504.4C1109.23 504.4 1045.05 504.4 918.69 504.4M1173.4 504.4C1097.26 504.4 1021.12 504.4 918.69 504.4" stroke="#28253D" stroke-width="1.3"/>
<path d="M918.69 504.4C1010.92 504.4 1103.15 504.4 1173.4 504.4M918.69 504.4C1001.16 504.4 1083.63 504.4 1173.4 504.4M918.69 504.4C918.69 514.02 918.69 529.085 918.69 544.15M918.69 504.4C918.69 525.955 918.69 535.052 918.69 544.15M1173.4 504.4C1173.4 516.123 1173.4 527.847 1173.4 544.15M1173.4 504.4C1173.4 517.414 1173.4 530.429 1173.4 544.15M1173.4 544.15C1084.24 544.15 995.075 544.15 918.69 544.15M1173.4 544.15C1085.09 544.15 996.786 544.15 918.69 544.15" stroke="#28253D" stroke-width="1.3"/>
<path d="M918.69 544.15C1002.62 544.15 1086.56 544.15 1173.4 544.15M918.69 544.15C1016.27 544.15 1113.85 544.15 1173.4 544.15M918.69 544.15C918.69 555.516 918.69 569.708 918.69 583.9M918.69 544.15C918.69 555.315 918.69 569.607 918.69 583.9M1173.4 544.15C1173.4 553.795 1173.4 563.439 1173.4 583.9M1173.4 544.15C1173.4 558.446 1173.4 572.741 1173.4 583.9M1173.4 583.9C1120.01 583.9 1066.62 583.9 918.69 583.9M1173.4 583.9C1097.66 583.9 1021.92 583.9 918.69 583.9" stroke="#28253D" stroke-width="1.3"/>
<path d="M918.69 583.9C987.027 583.9 1055.36 583.9 1173.4 583.9M918.69 583.9C980.849 583.9 1043.01 583.9 1173.4 583.9M918.69 583.9C918.69 606.459 918.69 615.054 918.69 623.65M918.69 583.9C918.69 607.304 918.69 615.477 918.69 623.65M1173.4 583.9C1173.4 599.534 1173.4 615.168 1173.4 623.65M1173.4 583.9C1173.4 596.42 1173.4 608.939 1173.4 623.65M1173.4 623.65C1117.26 623.65 1061.12 623.65 918.69 623.65M1173.4 623.65C1077.21 623.65 981.008 623.65 918.69 623.65" stroke="#28253D" stroke-width="1.3"/>
<path d="M918.69 623.65C985.3 623.65 1051.91 623.65 1173.4 623.65M918.69 623.65C981.731 623.65 1044.77 623.65 1173.4 623.65M918.69 623.65C918.69 643.298 918.69 653.349 918.69 663.4M918.69 623.65C918.69 635.788 918.69 649.594 918.69 663.4M1173.4 623.65C1173.4 636.429 1173.4 649.207 1173.4 663.4M1173.4 623.65C1173.4 634.054 1173.4 644.459 1173.4 663.4M1173.4 663.4C1075.25 663.4 977.095 663.4 918.69 663.4M1173.4 663.4C1081.51 663.4 989.622 663.4 918.69 663.4" stroke="#28253D" stroke-width="1.3"/>
<path d="M918.69 663.4C987.287 663.4 1055.88 663.4 1173.4 663.4M918.69 663.4C972.716 663.4 1026.74 663.4 1173.4 663.4M918.69 663.4C918.69 681.646 918.69 692.398 918.69 703.15M918.69 663.4C918.69 675.486 918.69 689.318 918.69 703.15M1173.4 663.4C1173.4 676.371 1173.4 689.343 1173.4 703.15M1173.4 663.4C1173.4 674.947 1173.4 686.494 1173.4 703.15M1173.4 703.15C1104.91 703.15 1036.42 703.15 918.69 703.15M1173.4 703.15C1083.58 703.15 993.754 703.15 918.69 703.15" stroke="#28253D" stroke-width="1.3"/>
<path d="M918.69 265.9C918.69 265.9 918.69 265.9 918.69 265.9ZM918.69 265.9C982.788 265.9 1046.89 265.9 1173.4 265.9M918.69 265.9C971.038 265.9 1023.39 265.9 1173.4 265.9M918.69 265.9C1012.36 265.9 1092.88 265.9 1173.4 265.9M918.69 265.9C987.721 265.9 1080.56 265.9 1173.4 265.9M1173.4 265.9C1173.4 265.9 1173.4 265.9 1173.4 265.9Z" stroke="#28253D" stroke-width="1.3"/>
<path d="M996.34 265.9C996.34 265.9 996.34 265.9 996.34 265.9ZM996.34 265.9C996.34 405.986 996.34 546.072 996.34 703.15M996.34 265.9C996.34 414.293 996.34 562.686 996.34 703.15M996.34 265.9C996.34 462.724 996.34 582.937 996.34 703.15M996.34 265.9C996.34 456.517 996.34 579.833 996.34 703.15M996.34 703.15C996.34 703.15 996.34 703.15 996.34 703.15Z" stroke="#28253D" stroke-width="1.3"/>
<path d="M1131.6 265.9C1131.6 265.9 1131.6 265.9 1131.6 265.9ZM1131.6 265.9C1131.6 362.68 1131.6 459.46 1131.6 703.15M1131.6 265.9C1131.6 423.129 1131.6 580.357 1131.6 703.15M1131.6 265.9C1131.6 491.033 1131.6 597.092 1131.6 703.15M1131.6 265.9C1131.6 369.672 1131.6 536.411 1131.6 703.15M1131.6 703.15C1131.6 703.15 1131.6 703.15 1131.6 703.15Z" stroke="#28253D" stroke-width="1.3"/>
<path d="M918.69 265.9C918.69 265.9 918.69 265.9 918.69 265.9ZM918.69 265.9C1003.3 265.9 1087.91 265.9 1173.4 265.9M918.69 265.9C992.569 265.9 1066.45 265.9 1173.4 265.9M918.69 265.9C994.953 265.9 1084.18 265.9 1173.4 265.9M918.69 265.9C1006.39 265.9 1089.89 265.9 1173.4 265.9M1173.4 265.9C1173.4 265.9 1173.4 265.9 1173.4 265.9Z" stroke="#28253D" stroke-width="1.3"/>
<path d="M423.837 0.649902H662.787V239.15H423.837" fill="white"/>
<path d="M423.837 0.649902C482.416 0.649902 540.994 0.649902 662.787 0.649902M423.837 0.649902C508.284 0.649902 592.73 0.649902 662.787 0.649902M423.837 0.649902C423.837 138.64 423.837 188.895 423.837 239.15M423.837 0.649902C423.837 110.203 423.837 174.677 423.837 239.15M662.787 0.649902C662.787 75.5836 662.787 150.517 662.787 239.15M662.787 0.649902C662.787 81.4061 662.787 162.162 662.787 239.15M662.787 239.15C595.575 239.15 528.364 239.15 423.837 239.15M662.787 239.15C611.191 239.15 559.595 239.15 423.837 239.15" stroke="#28253D" stroke-width="1.3"/>
<path d="M423.837 40.3999C490.28 40.3999 556.722 40.3999 662.787 40.3999M423.837 40.3999C479.905 40.3999 535.973 40.3999 662.787 40.3999M423.837 40.3999C423.837 50.7849 423.837 65.4674 423.837 80.1499M423.837 40.3999C423.837 49.8268 423.837 64.9884 423.837 80.1499M662.787 40.3999C662.787 51.1007 662.787 61.8015 662.787 80.1499M662.787 40.3999C662.787 50.4497 662.787 60.4995 662.787 80.1499M662.787 80.1499C574.048 80.1499 485.309 80.1499 423.837 80.1499M662.787 80.1499C576.253 80.1499 489.718 80.1499 423.837 80.1499" stroke="#28253D" stroke-width="1.3"/>
<path d="M423.837 80.1499C484.262 80.1499 544.686 80.1499 662.787 80.1499M423.837 80.1499C507.992 80.1499 592.148 80.1499 662.787 80.1499M423.837 80.1499C423.837 94.5059 423.837 107.203 423.837 119.9M423.837 80.1499C423.837 100.073 423.837 109.986 423.837 119.9M662.787 80.1499C662.787 89.1477 662.787 98.1455 662.787 119.9M662.787 80.1499C662.787 89.0498 662.787 97.9496 662.787 119.9M662.787 119.9C577.814 119.9 492.841 119.9 423.837 119.9M662.787 119.9C606.274 119.9 549.76 119.9 423.837 119.9" stroke="#28253D" stroke-width="1.3"/>
<path d="M423.837 119.9C509.375 119.9 594.913 119.9 662.787 119.9M423.837 119.9C493.429 119.9 563.02 119.9 662.787 119.9M423.837 119.9C423.837 135.181 423.837 147.415 423.837 159.65M423.837 119.9C423.837 141.667 423.837 150.658 423.837 159.65M662.787 119.9C662.787 133.616 662.787 147.332 662.787 159.65M662.787 119.9C662.787 128.767 662.787 137.633 662.787 159.65M662.787 159.65C587.573 159.65 512.358 159.65 423.837 159.65M662.787 159.65C575.025 159.65 487.263 159.65 423.837 159.65" stroke="#28253D" stroke-width="1.3"/>
<path d="M423.837 159.65C497.137 159.65 570.437 159.65 662.787 159.65M423.837 159.65C517.993 159.65 612.148 159.65 662.787 159.65M423.837 159.65C423.837 170.545 423.837 184.972 423.837 199.4M423.837 159.65C423.837 171.259 423.837 185.329 423.837 199.4M662.787 159.65C662.787 168.51 662.787 177.37 662.787 199.4M662.787 159.65C662.787 174.785 662.787 189.919 662.787 199.4M662.787 199.4C572.847 199.4 482.906 199.4 423.837 199.4M662.787 199.4C593.049 199.4 523.311 199.4 423.837 199.4" stroke="#28253D" stroke-width="1.3"/>
<path d="M423.837 199.4C496.079 199.4 568.322 199.4 662.787 199.4M423.837 199.4C503.386 199.4 582.935 199.4 662.787 199.4M423.837 199.4C423.837 216.447 423.837 227.799 423.837 239.15M423.837 199.4C423.837 222.924 423.837 231.037 423.837 239.15M662.787 199.4C662.787 210.405 662.787 221.409 662.787 239.15M662.787 199.4C662.787 213.977 662.787 228.554 662.787 239.15M662.787 239.15C567.816 239.15 472.844 239.15 423.837 239.15M662.787 239.15C567.974 239.15 473.161 239.15 423.837 239.15" stroke="#28253D" stroke-width="1.3"/>
<path d="M423.837 40.3999C423.837 40.3999 423.837 40.3999 423.837 40.3999ZM423.837 40.3999C483.886 40.3999 543.936 40.4 662.787 40.4M423.837 40.3999C482.341 40.3999 540.844 40.4 662.787 40.4M423.837 40.3999C500.768 40.3999 581.778 40.4 662.787 40.4M423.837 40.3999C551.051 40.3999 606.919 40.4 662.787 40.4M662.787 40.4C662.787 40.4 662.787 40.4 662.787 40.4Z" stroke="#28253D" stroke-width="1.3"/>
<path d="M512.4 40.3999C512.4 40.3999 512.4 40.3999 512.4 40.3999ZM512.4 40.3999C512.4 113.925 512.4 187.451 512.4 239.15M512.4 40.3999C512.4 100.07 512.4 159.741 512.4 239.15M512.4 40.3999C512.4 152.578 512.4 195.864 512.4 239.15M512.4 40.3999C512.4 109.907 512.4 174.528 512.4 239.15M512.4 239.15C512.4 239.15 512.4 239.15 512.4 239.15Z" stroke="#28253D" stroke-width="1.3"/>
<path d="M620.987 40.3999C620.987 40.3999 620.987 40.3999 620.987 40.3999ZM620.987 40.3999C620.987 88.7014 620.987 137.003 620.987 239.15M620.987 40.3999C620.987 97.3571 620.987 154.314 620.987 239.15M620.987 40.3999C620.987 113.364 620.987 176.257 620.987 239.15M620.987 40.3999C620.987 150.292 620.987 194.721 620.987 239.15M620.987 239.15C620.987 239.15 620.987 239.15 620.987 239.15Z" stroke="#28253D" stroke-width="1.3"/>
<path d="M423.837 40.3999C423.837 40.3999 423.837 40.3998 423.837 40.3999ZM423.837 40.3999C515.711 40.3999 607.585 40.4 662.787 40.4M423.837 40.3999C481.542 40.3999 539.246 40.4 662.787 40.4M423.837 40.3999C494.263 40.3999 578.525 40.4 662.787 40.4M423.837 40.3999C502.259 40.3999 582.523 40.4 662.787 40.4M662.787 40.4C662.787 40.4 662.787 40.4 662.787 40.4Z" stroke="#28253D" stroke-width="1.3"/>
<path d="M423.837 597.4H659.85V796.15H423.837" fill="white"/>
<path d="M423.837 597.4C473.302 597.4 522.767 597.4 659.85 597.4M423.837 597.4C488.342 597.4 552.846 597.4 659.85 597.4M423.837 597.4C423.837 686.202 423.837 741.176 423.837 796.15M423.837 597.4C423.837 649.709 423.837 722.929 423.837 796.15M659.85 597.4C659.85 648.654 659.85 699.908 659.85 796.15M659.85 597.4C659.85 659.62 659.85 721.84 659.85 796.15M659.85 796.15C574.912 796.15 489.973 796.15 423.837 796.15M659.85 796.15C592.727 796.15 525.605 796.15 423.837 796.15" stroke="#28253D" stroke-width="1.3"/>
<path d="M423.837 637.15C500.287 637.15 576.737 637.15 659.85 637.15M423.837 637.15C503.692 637.15 583.546 637.15 659.85 637.15M423.837 637.15C423.837 652.059 423.837 664.479 423.837 676.9M423.837 637.15C423.837 653.695 423.837 665.297 423.837 676.9M659.85 637.15C659.85 651.369 659.85 665.588 659.85 676.9M659.85 637.15C659.85 651.498 659.85 665.847 659.85 676.9M659.85 676.9C610.01 676.9 560.17 676.9 423.837 676.9M659.85 676.9C594.864 676.9 529.879 676.9 423.837 676.9" stroke="#28253D" stroke-width="1.3"/>
<path d="M423.837 676.9C490.8 676.9 557.763 676.9 659.85 676.9M423.837 676.9C485.094 676.9 546.351 676.9 659.85 676.9M423.837 676.9C423.837 690.458 423.837 703.554 423.837 716.65M423.837 676.9C423.837 698.227 423.837 707.438 423.837 716.65M659.85 676.9C659.85 691.196 659.85 705.492 659.85 716.65M659.85 676.9C659.85 687.579 659.85 698.258 659.85 716.65M659.85 716.65C582.081 716.65 504.313 716.65 423.837 716.65M659.85 716.65C592.48 716.65 525.11 716.65 423.837 716.65" stroke="#28253D" stroke-width="1.3"/>
<path d="M423.837 716.65C494.195 716.65 564.553 716.65 659.85 716.65M423.837 716.65C473.247 716.65 522.657 716.65 659.85 716.65M423.837 716.65C423.837 732.268 423.837 744.334 423.837 756.4M423.837 716.65C423.837 739.954 423.837 748.177 423.837 756.4M659.85 716.65C659.85 728.242 659.85 739.834 659.85 756.4M659.85 716.65C659.85 730.01 659.85 743.369 659.85 756.4M659.85 756.4C601.727 756.4 543.604 756.4 423.837 756.4M659.85 756.4C584.897 756.4 509.944 756.4 423.837 756.4" stroke="#28253D" stroke-width="1.3"/>
<path d="M423.837 756.4C514.596 756.4 605.354 756.4 659.85 756.4M423.837 756.4C472.146 756.4 520.455 756.4 659.85 756.4M423.837 756.4C423.837 777.698 423.837 786.924 423.837 796.15M423.837 756.4C423.837 769.702 423.837 782.926 423.837 796.15M659.85 756.4C659.85 765.857 659.85 775.313 659.85 796.15M659.85 756.4C659.85 771.115 659.85 785.83 659.85 796.15M659.85 796.15C606.718 796.15 553.586 796.15 423.837 796.15M659.85 796.15C586.31 796.15 512.771 796.15 423.837 796.15" stroke="#28253D" stroke-width="1.3"/>
<path d="M423.837 637.15C423.837 637.15 423.837 637.15 423.837 637.15ZM423.837 637.15C504.764 637.15 585.691 637.15 659.85 637.15M423.837 637.15C496.325 637.15 568.813 637.15 659.85 637.15M423.837 637.15C488.98 637.15 574.415 637.15 659.85 637.15M423.837 637.15C490.572 637.15 575.211 637.15 659.85 637.15M659.85 637.15C659.85 637.15 659.85 637.15 659.85 637.15Z" stroke="#28253D" stroke-width="1.3"/>
<path d="M491.262 637.15C491.262 637.15 491.262 637.15 491.262 637.15ZM491.262 637.15C491.262 690.216 491.262 743.283 491.262 796.15M491.262 637.15C491.262 684.809 491.262 732.469 491.262 796.15M491.262 637.15C491.262 689.695 491.262 742.923 491.262 796.15M491.262 637.15C491.262 714.501 491.262 755.325 491.262 796.15M491.262 796.15C491.262 796.15 491.262 796.15 491.262 796.15Z" stroke="#28253D" stroke-width="1.3"/>
<path d="M618.05 637.15C618.05 637.15 618.05 637.15 618.05 637.15ZM618.05 637.15C618.05 697.544 618.05 757.937 618.05 796.15M618.05 637.15C618.05 693.055 618.05 748.961 618.05 796.15M618.05 637.15C618.05 682.289 618.05 739.22 618.05 796.15M618.05 637.15C618.05 696.148 618.05 746.149 618.05 796.15M618.05 796.15C618.05 796.15 618.05 796.15 618.05 796.15Z" stroke="#28253D" stroke-width="1.3"/>
<path d="M423.837 637.15C423.837 637.15 423.837 637.15 423.837 637.15ZM423.837 637.15C485.992 637.15 548.146 637.15 659.85 637.15M423.837 637.15C502.453 637.15 581.069 637.15 659.85 637.15M423.837 637.15C523.296 637.15 591.573 637.15 659.85 637.15M423.837 637.15C536.099 637.15 597.975 637.15 659.85 637.15M659.85 637.15C659.85 637.15 659.85 637.15 659.85 637.15Z" stroke="#28253D" stroke-width="1.3"/>
<path d="M1334.76 285.775H1597.16V643.525H1334.76" fill="white"/>
<path d="M1334.76 285.775C1432.58 285.775 1530.41 285.775 1597.16 285.775M1334.76 285.775C1402.9 285.775 1471.03 285.775 1597.16 285.775M1334.76 285.775C1334.76 462.193 1334.76 552.859 1334.76 643.525M1334.76 285.775C1334.76 372.152 1334.76 507.839 1334.76 643.525M1597.16 285.775C1597.16 393.8 1597.16 501.826 1597.16 643.525M1597.16 285.775C1597.16 420.016 1597.16 554.256 1597.16 643.525M1597.16 643.525C1520.96 643.525 1444.77 643.525 1334.76 643.525M1597.16 643.525C1496.31 643.525 1395.46 643.525 1334.76 643.525" stroke="#28253D" stroke-width="1.3"/>
<path d="M1334.76 325.525C1420.82 325.525 1506.87 325.525 1597.16 325.525M1334.76 325.525C1405.73 325.525 1476.69 325.525 1597.16 325.525M1334.76 325.525C1334.76 336.953 1334.76 351.114 1334.76 365.275M1334.76 325.525C1334.76 338.56 1334.76 351.918 1334.76 365.275M1597.16 325.525C1597.16 333.644 1597.16 341.763 1597.16 365.275M1597.16 325.525C1597.16 336.915 1597.16 348.306 1597.16 365.275M1597.16 365.275C1543.2 365.275 1489.24 365.275 1334.76 365.275M1597.16 365.275C1543.95 365.275 1490.74 365.275 1334.76 365.275" stroke="#28253D" stroke-width="1.3"/>
<path d="M1334.76 365.275C1387.45 365.275 1440.13 365.275 1597.16 365.275M1334.76 365.275C1408.23 365.275 1481.69 365.275 1597.16 365.275M1334.76 365.275C1334.76 379.195 1334.76 392.11 1334.76 405.025M1334.76 365.275C1334.76 377.745 1334.76 391.385 1334.76 405.025M1597.16 365.275C1597.16 373.559 1597.16 381.842 1597.16 405.025M1597.16 365.275C1597.16 380.442 1597.16 395.608 1597.16 405.025M1597.16 405.025C1514.56 405.025 1431.97 405.025 1334.76 405.025M1597.16 405.025C1499.73 405.025 1402.29 405.025 1334.76 405.025" stroke="#28253D" stroke-width="1.3"/>
<path d="M1334.76 405.025C1426.27 405.025 1517.78 405.025 1597.16 405.025M1334.76 405.025C1421.5 405.025 1508.23 405.025 1597.16 405.025M1334.76 405.025C1334.76 420.576 1334.76 432.675 1334.76 444.775M1334.76 405.025C1334.76 427.273 1334.76 436.024 1334.76 444.775M1597.16 405.025C1597.16 419.779 1597.16 434.533 1597.16 444.775M1597.16 405.025C1597.16 418.619 1597.16 432.214 1597.16 444.775M1597.16 444.775C1510.83 444.775 1424.51 444.775 1334.76 444.775M1597.16 444.775C1509.06 444.775 1420.96 444.775 1334.76 444.775" stroke="#28253D" stroke-width="1.3"/>
<path d="M1334.76 444.775C1405.96 444.775 1477.17 444.775 1597.16 444.775M1334.76 444.775C1403.09 444.775 1471.43 444.775 1597.16 444.775M1334.76 444.775C1334.76 463.89 1334.76 474.207 1334.76 484.525M1334.76 444.775C1334.76 454.882 1334.76 469.703 1334.76 484.525M1597.16 444.775C1597.16 453.189 1597.16 461.602 1597.16 484.525M1597.16 444.775C1597.16 459.358 1597.16 473.941 1597.16 484.525M1597.16 484.525C1502.53 484.525 1407.9 484.525 1334.76 484.525M1597.16 484.525C1539.01 484.525 1480.86 484.525 1334.76 484.525" stroke="#28253D" stroke-width="1.3"/>
<path d="M1334.76 484.525C1421.64 484.525 1508.53 484.525 1597.16 484.525M1334.76 484.525C1407.14 484.525 1479.53 484.525 1597.16 484.525M1334.76 484.525C1334.76 495.766 1334.76 510.02 1334.76 524.275M1334.76 484.525C1334.76 497.92 1334.76 511.098 1334.76 524.275M1597.16 484.525C1597.16 496.031 1597.16 507.537 1597.16 524.275M1597.16 484.525C1597.16 494.884 1597.16 505.244 1597.16 524.275M1597.16 524.275C1541.53 524.275 1485.91 524.275 1334.76 524.275M1597.16 524.275C1539.59 524.275 1482.02 524.275 1334.76 524.275" stroke="#28253D" stroke-width="1.3"/>
<path d="M1334.76 524.275C1426.58 524.275 1518.4 524.275 1597.16 524.275M1334.76 524.275C1412.45 524.275 1490.15 524.275 1597.16 524.275M1334.76 524.275C1334.76 537.374 1334.76 550.699 1334.76 564.025M1334.76 524.275C1334.76 533.231 1334.76 548.628 1334.76 564.025M1597.16 524.275C1597.16 535.892 1597.16 547.509 1597.16 564.025M1597.16 524.275C1597.16 534.211 1597.16 544.146 1597.16 564.025M1597.16 564.025C1519.03 564.025 1440.89 564.025 1334.76 564.025M1597.16 564.025C1524.78 564.025 1452.41 564.025 1334.76 564.025" stroke="#28253D" stroke-width="1.3"/>
<path d="M1334.76 564.025C1415.77 564.025 1496.78 564.025 1597.16 564.025M1334.76 564.025C1392.43 564.025 1450.09 564.025 1597.16 564.025M1334.76 564.025C1334.76 583.824 1334.76 593.799 1334.76 603.775M1334.76 564.025C1334.76 579.047 1334.76 591.411 1334.76 603.775M1597.16 564.025C1597.16 577.201 1597.16 590.376 1597.16 603.775M1597.16 564.025C1597.16 573.619 1597.16 583.212 1597.16 603.775M1597.16 603.775C1530.3 603.775 1463.43 603.775 1334.76 603.775M1597.16 603.775C1495.37 603.775 1393.58 603.775 1334.76 603.775" stroke="#28253D" stroke-width="1.3"/>
<path d="M1334.76 603.775C1391.19 603.775 1447.61 603.775 1597.16 603.775M1334.76 603.775C1417.21 603.775 1499.66 603.775 1597.16 603.775M1334.76 603.775C1334.76 620.912 1334.76 632.218 1334.76 643.525M1334.76 603.775C1334.76 626.418 1334.76 634.971 1334.76 643.525M1597.16 603.775C1597.16 615.485 1597.16 627.194 1597.16 643.525M1597.16 603.775C1597.16 611.734 1597.16 619.692 1597.16 643.525M1597.16 643.525C1510.83 643.525 1424.5 643.525 1334.76 643.525M1597.16 643.525C1538.2 643.525 1479.23 643.525 1334.76 643.525" stroke="#28253D" stroke-width="1.3"/>
<path d="M1334.76 325.525C1334.76 325.525 1334.76 325.525 1334.76 325.525ZM1334.76 325.525C1392.58 325.525 1450.39 325.525 1597.16 325.525M1334.76 325.525C1411.67 325.525 1488.58 325.525 1597.16 325.525M1334.76 325.525C1489.69 325.525 1543.43 325.525 1597.16 325.525M1334.76 325.525C1475.83 325.525 1536.5 325.525 1597.16 325.525M1597.16 325.525C1597.16 325.525 1597.16 325.525 1597.16 325.525Z" stroke="#28253D" stroke-width="1.3"/>
<path d="M1434.81 325.525C1434.81 325.525 1434.81 325.525 1434.81 325.525ZM1434.81 325.525C1434.81 448.471 1434.81 571.418 1434.81 643.525M1434.81 325.525C1434.81 394.658 1434.81 463.791 1434.81 643.525M1434.81 325.525C1434.81 456.608 1434.81 550.067 1434.81 643.525M1434.81 325.525C1434.81 403.956 1434.81 523.741 1434.81 643.525M1434.81 643.525C1434.81 643.525 1434.81 643.525 1434.81 643.525Z" stroke="#28253D" stroke-width="1.3"/>
<path d="M1555.36 325.525C1555.36 325.525 1555.36 325.525 1555.36 325.525ZM1555.36 325.525C1555.36 436.107 1555.36 546.69 1555.36 643.525M1555.36 325.525C1555.36 416.812 1555.36 508.098 1555.36 643.525M1555.36 325.525C1555.36 463.078 1555.36 553.301 1555.36 643.525M1555.36 325.525C1555.36 447.138 1555.36 545.331 1555.36 643.525M1555.36 643.525C1555.36 643.525 1555.36 643.525 1555.36 643.525Z" stroke="#28253D" stroke-width="1.3"/>
<path d="M1334.76 325.525C1334.76 325.525 1334.76 325.525 1334.76 325.525ZM1334.76 325.525C1425.27 325.525 1515.78 325.525 1597.16 325.525M1334.76 325.525C1420.13 325.525 1505.49 325.525 1597.16 325.525M1334.76 325.525C1420.88 325.525 1509.02 325.525 1597.16 325.525M1334.76 325.525C1418.7 325.525 1507.93 325.525 1597.16 325.525M1597.16 325.525C1597.16 325.525 1597.16 325.525 1597.16 325.525Z" stroke="#28253D" stroke-width="1.3"/>
<path d="M1763.55 246.025H2035.34V683.275H1763.55" fill="white"/>
<path d="M1763.55 246.025C1847.11 246.025 1930.67 246.025 2035.34 246.025M1763.55 246.025C1865.9 246.025 1968.25 246.025 2035.34 246.025M1763.55 246.025C1763.55 439.029 1763.55 561.152 1763.55 683.275M1763.55 246.025C1763.55 371.142 1763.55 527.208 1763.55 683.275M2035.34 246.025C2035.34 365.918 2035.34 485.81 2035.34 683.275M2035.34 246.025C2035.34 368.506 2035.34 490.988 2035.34 683.275M2035.34 683.275C1948.92 683.275 1862.51 683.275 1763.55 683.275M2035.34 683.275C1956.55 683.275 1877.76 683.275 1763.55 683.275" stroke="#28253D" stroke-width="1.3"/>
<path d="M1763.55 285.775C1840.65 285.775 1917.75 285.775 2035.34 285.775M1763.55 285.775C1844.17 285.775 1924.79 285.775 2035.34 285.775M1763.55 285.775C1763.55 307.684 1763.55 316.605 1763.55 325.525M1763.55 285.775C1763.55 303.3 1763.55 314.412 1763.55 325.525M2035.34 285.775C2035.34 301.062 2035.34 316.349 2035.34 325.525M2035.34 285.775C2035.34 300.889 2035.34 316.002 2035.34 325.525M2035.34 325.525C1970.04 325.525 1904.74 325.525 1763.55 325.525M2035.34 325.525C1926.91 325.525 1818.48 325.525 1763.55 325.525" stroke="#28253D" stroke-width="1.3"/>
<path d="M1763.55 325.525C1825.72 325.525 1887.88 325.525 2035.34 325.525M1763.55 325.525C1860.4 325.525 1957.25 325.525 2035.34 325.525M1763.55 325.525C1763.55 334.513 1763.55 349.894 1763.55 365.275M1763.55 325.525C1763.55 341.335 1763.55 353.305 1763.55 365.275M2035.34 325.525C2035.34 341.223 2035.34 356.921 2035.34 365.275M2035.34 325.525C2035.34 340.792 2035.34 356.059 2035.34 365.275M2035.34 365.275C1969.46 365.275 1903.59 365.275 1763.55 365.275M2035.34 365.275C1952.61 365.275 1869.89 365.275 1763.55 365.275" stroke="#28253D" stroke-width="1.3"/>
<path d="M1763.55 365.275C1871.64 365.275 1979.72 365.275 2035.34 365.275M1763.55 365.275C1840.98 365.275 1918.4 365.275 2035.34 365.275M1763.55 365.275C1763.55 380.081 1763.55 392.553 1763.55 405.025M1763.55 365.275C1763.55 380.096 1763.55 392.561 1763.55 405.025M2035.34 365.275C2035.34 380.301 2035.34 395.327 2035.34 405.025M2035.34 365.275C2035.34 374.049 2035.34 382.823 2035.34 405.025M2035.34 405.025C1935.07 405.025 1834.79 405.025 1763.55 405.025M2035.34 405.025C1928.43 405.025 1821.53 405.025 1763.55 405.025" stroke="#28253D" stroke-width="1.3"/>
<path d="M1763.55 405.025C1870.07 405.025 1976.58 405.025 2035.34 405.025M1763.55 405.025C1868.38 405.025 1973.22 405.025 2035.34 405.025M1763.55 405.025C1763.55 416.249 1763.55 430.512 1763.55 444.775M1763.55 405.025C1763.55 427.297 1763.55 436.036 1763.55 444.775M2035.34 405.025C2035.34 420.104 2035.34 435.183 2035.34 444.775M2035.34 405.025C2035.34 416.719 2035.34 428.413 2035.34 444.775M2035.34 444.775C1940.5 444.775 1845.66 444.775 1763.55 444.775M2035.34 444.775C1945.22 444.775 1855.1 444.775 1763.55 444.775" stroke="#28253D" stroke-width="1.3"/>
<path d="M1763.55 444.775C1838.25 444.775 1912.94 444.775 2035.34 444.775M1763.55 444.775C1851.91 444.775 1940.28 444.775 2035.34 444.775M1763.55 444.775C1763.55 459.377 1763.55 471.951 1763.55 484.525M1763.55 444.775C1763.55 464.689 1763.55 474.607 1763.55 484.525M2035.34 444.775C2035.34 458.84 2035.34 472.904 2035.34 484.525M2035.34 444.775C2035.34 458.106 2035.34 471.437 2035.34 484.525M2035.34 484.525C1929.08 484.525 1822.82 484.525 1763.55 484.525M2035.34 484.525C1944.33 484.525 1853.33 484.525 1763.55 484.525" stroke="#28253D" stroke-width="1.3"/>
<path d="M1763.55 484.525C1825.33 484.525 1887.11 484.525 2035.34 484.525M1763.55 484.525C1843.96 484.525 1924.36 484.525 2035.34 484.525M1763.55 484.525C1763.55 502.875 1763.55 513.575 1763.55 524.275M1763.55 484.525C1763.55 497.601 1763.55 510.938 1763.55 524.275M2035.34 484.525C2035.34 498.976 2035.34 513.427 2035.34 524.275M2035.34 484.525C2035.34 497.568 2035.34 510.612 2035.34 524.275M2035.34 524.275C1965.25 524.275 1895.16 524.275 1763.55 524.275M2035.34 524.275C1954.28 524.275 1873.23 524.275 1763.55 524.275" stroke="#28253D" stroke-width="1.3"/>
<path d="M1763.55 524.275C1844.98 524.275 1926.41 524.275 2035.34 524.275M1763.55 524.275C1828.06 524.275 1892.57 524.275 2035.34 524.275M1763.55 524.275C1763.55 536.489 1763.55 550.257 1763.55 564.025M1763.55 524.275C1763.55 541.088 1763.55 552.556 1763.55 564.025M2035.34 524.275C2035.34 534.774 2035.34 545.274 2035.34 564.025M2035.34 524.275C2035.34 533.072 2035.34 541.87 2035.34 564.025M2035.34 564.025C1970.3 564.025 1905.26 564.025 1763.55 564.025M2035.34 564.025C1929.88 564.025 1824.42 564.025 1763.55 564.025" stroke="#28253D" stroke-width="1.3"/>
<path d="M1763.55 564.025C1860.29 564.025 1957.03 564.025 2035.34 564.025M1763.55 564.025C1856.2 564.025 1948.86 564.025 2035.34 564.025M1763.55 564.025C1763.55 582.533 1763.55 593.154 1763.55 603.775M1763.55 564.025C1763.55 573.954 1763.55 588.864 1763.55 603.775M2035.34 564.025C2035.34 579.808 2035.34 595.592 2035.34 603.775M2035.34 564.025C2035.34 578.949 2035.34 593.872 2035.34 603.775M2035.34 603.775C1966.51 603.775 1897.69 603.775 1763.55 603.775M2035.34 603.775C1951.02 603.775 1866.7 603.775 1763.55 603.775" stroke="#28253D" stroke-width="1.3"/>
<path d="M1763.55 603.775C1851.47 603.775 1939.39 603.775 2035.34 603.775M1763.55 603.775C1851.86 603.775 1940.17 603.775 2035.34 603.775M1763.55 603.775C1763.55 619.617 1763.55 631.571 1763.55 643.525M1763.55 603.775C1763.55 616.208 1763.55 629.867 1763.55 643.525M2035.34 603.775C2035.34 619.071 2035.34 634.367 2035.34 643.525M2035.34 603.775C2035.34 618.993 2035.34 634.21 2035.34 643.525M2035.34 643.525C1974.96 643.525 1914.57 643.525 1763.55 643.525M2035.34 643.525C1975.17 643.525 1915.01 643.525 1763.55 643.525" stroke="#28253D" stroke-width="1.3"/>
<path d="M1763.55 643.525C1830.61 643.525 1897.68 643.525 2035.34 643.525M1763.55 643.525C1864.06 643.525 1964.56 643.525 2035.34 643.525M1763.55 643.525C1763.55 658.207 1763.55 670.741 1763.55 683.275M1763.55 643.525C1763.55 655.767 1763.55 669.521 1763.55 683.275M2035.34 643.525C2035.34 656.624 2035.34 669.722 2035.34 683.275M2035.34 643.525C2035.34 659.172 2035.34 674.818 2035.34 683.275M2035.34 683.275C1952.59 683.275 1869.84 683.275 1763.55 683.275M2035.34 683.275C1942.41 683.275 1849.49 683.275 1763.55 683.275" stroke="#28253D" stroke-width="1.3"/>
<path d="M1763.55 285.775C1763.55 285.775 1763.55 285.775 1763.55 285.775ZM1763.55 285.775C1831.13 285.775 1898.71 285.775 2035.34 285.775M1763.55 285.775C1826.62 285.775 1889.69 285.775 2035.34 285.775M1763.55 285.775C1903.35 285.775 1969.35 285.775 2035.34 285.775M1763.55 285.775C1891.59 285.775 1963.46 285.775 2035.34 285.775M2035.34 285.775C2035.34 285.775 2035.34 285.775 2035.34 285.775Z" stroke="#28253D" stroke-width="1.3"/>
<path d="M1863.6 285.775C1863.6 285.775 1863.6 285.775 1863.6 285.775ZM1863.6 285.775C1863.6 389.194 1863.6 492.613 1863.6 683.275M1863.6 285.775C1863.6 394.186 1863.6 502.596 1863.6 683.275M1863.6 285.775C1863.6 425.77 1863.6 554.522 1863.6 683.275M1863.6 285.775C1863.6 480.099 1863.6 581.687 1863.6 683.275M1863.6 683.275C1863.6 683.275 1863.6 683.275 1863.6 683.275Z" stroke="#28253D" stroke-width="1.3"/>
<path d="M1993.54 285.775C1993.54 285.775 1993.54 285.775 1993.54 285.775ZM1993.54 285.775C1993.54 387.809 1993.54 489.844 1993.54 683.275M1993.54 285.775C1993.54 433.217 1993.54 580.659 1993.54 683.275M1993.54 285.775C1993.54 393.252 1993.54 538.263 1993.54 683.275M1993.54 285.775C1993.54 411.059 1993.54 547.167 1993.54 683.275M1993.54 683.275C1993.54 683.275 1993.54 683.275 1993.54 683.275Z" stroke="#28253D" stroke-width="1.3"/>
<path d="M1763.55 285.775C1763.55 285.775 1763.55 285.775 1763.55 285.775ZM1763.55 285.775C1849.1 285.775 1934.65 285.775 2035.34 285.775M1763.55 285.775C1857.17 285.775 1950.78 285.775 2035.34 285.775M1763.55 285.775C1875.32 285.775 1955.33 285.775 2035.34 285.775M1763.55 285.775C1820.96 285.775 1928.15 285.775 2035.34 285.775M2035.34 285.775C2035.34 285.775 2035.34 285.775 2035.34 285.775Z" stroke="#28253D" stroke-width="1.3"/>
<path d="M0.649902 1353.15H269.075V1790.4H0.649902" fill="white"/>
<path d="M0.649902 1353.15C57.883 1353.15 115.116 1353.15 269.075 1353.15M0.649902 1353.15C63.6169 1353.15 126.584 1353.15 269.075 1353.15M0.649902 1353.15C0.649902 1479.7 0.649902 1635.05 0.649902 1790.4M0.649902 1353.15C0.649902 1443.18 0.649902 1616.79 0.649902 1790.4M269.075 1353.15C269.075 1455.53 269.075 1557.91 269.075 1790.4M269.075 1353.15C269.075 1449.73 269.075 1546.31 269.075 1790.4M269.075 1790.4C191.982 1790.4 114.889 1790.4 0.649902 1790.4M269.075 1790.4C171.995 1790.4 74.9144 1790.4 0.649902 1790.4" stroke="#28253D" stroke-width="1.3"/>
<path d="M0.649902 1392.9C71.3746 1392.9 142.099 1392.9 269.075 1392.9M0.649902 1392.9C100.083 1392.9 199.516 1392.9 269.075 1392.9M0.649902 1392.9C0.649902 1410.42 0.649902 1421.54 0.649902 1432.65M0.649902 1392.9C0.649902 1406.89 0.649902 1419.77 0.649902 1432.65M269.075 1392.9C269.075 1405.39 269.075 1417.88 269.075 1432.65M269.075 1392.9C269.075 1403.91 269.075 1414.93 269.075 1432.65M269.075 1432.65C184.097 1432.65 99.1186 1432.65 0.649902 1432.65M269.075 1432.65C179.874 1432.65 90.6725 1432.65 0.649902 1432.65" stroke="#28253D" stroke-width="1.3"/>
<path d="M0.649902 1432.65C59.4302 1432.65 118.21 1432.65 269.075 1432.65M0.649902 1432.65C87.8554 1432.65 175.061 1432.65 269.075 1432.65M0.649902 1432.65C0.649902 1443.91 0.649902 1458.15 0.649902 1472.4M0.649902 1432.65C0.649902 1442.39 0.649902 1457.39 0.649902 1472.4M269.075 1432.65C269.075 1446.6 269.075 1460.56 269.075 1472.4M269.075 1432.65C269.075 1446.39 269.075 1460.13 269.075 1472.4M269.075 1472.4C191.737 1472.4 114.398 1472.4 0.649902 1472.4M269.075 1472.4C190.184 1472.4 111.293 1472.4 0.649902 1472.4" stroke="#28253D" stroke-width="1.3"/>
<path d="M0.649902 1472.4C80.9443 1472.4 161.239 1472.4 269.075 1472.4M0.649902 1472.4C59.3739 1472.4 118.098 1472.4 269.075 1472.4M0.649902 1472.4C0.649902 1487.7 0.649902 1499.92 0.649902 1512.15M0.649902 1472.4C0.649902 1491.13 0.649902 1501.64 0.649902 1512.15M269.075 1472.4C269.075 1481.77 269.075 1491.14 269.075 1512.15M269.075 1472.4C269.075 1487.65 269.075 1502.9 269.075 1512.15M269.075 1512.15C199.875 1512.15 130.675 1512.15 0.649902 1512.15M269.075 1512.15C214.996 1512.15 160.918 1512.15 0.649902 1512.15" stroke="#28253D" stroke-width="1.3"/>
<path d="M0.649902 1512.15C68.5617 1512.15 136.474 1512.15 269.075 1512.15M0.649902 1512.15C87.6502 1512.15 174.651 1512.15 269.075 1512.15M0.649902 1512.15C0.649902 1534.22 0.649902 1543.06 0.649902 1551.9M0.649902 1512.15C0.649902 1531.58 0.649902 1541.74 0.649902 1551.9M269.075 1512.15C269.075 1522.44 269.075 1532.72 269.075 1551.9M269.075 1512.15C269.075 1525.01 269.075 1537.86 269.075 1551.9M269.075 1551.9C173.683 1551.9 78.2913 1551.9 0.649902 1551.9M269.075 1551.9C201.639 1551.9 134.204 1551.9 0.649902 1551.9" stroke="#28253D" stroke-width="1.3"/>
<path d="M0.649902 1551.9C57.1849 1551.9 113.72 1551.9 269.075 1551.9M0.649902 1551.9C107.077 1551.9 213.504 1551.9 269.075 1551.9M0.649902 1551.9C0.649902 1563.76 0.649902 1577.7 0.649902 1591.65M0.649902 1551.9C0.649902 1564.33 0.649902 1577.99 0.649902 1591.65M269.075 1551.9C269.075 1566.87 269.075 1581.84 269.075 1591.65M269.075 1551.9C269.075 1567.43 269.075 1582.96 269.075 1591.65M269.075 1591.65C209.184 1591.65 149.294 1591.65 0.649902 1591.65M269.075 1591.65C204.198 1591.65 139.321 1591.65 0.649902 1591.65" stroke="#28253D" stroke-width="1.3"/>
<path d="M0.649902 1591.65C99.0327 1591.65 197.416 1591.65 269.075 1591.65M0.649902 1591.65C103.918 1591.65 207.186 1591.65 269.075 1591.65M0.649902 1591.65C0.649902 1600.42 0.649902 1615.91 0.649902 1631.4M0.649902 1591.65C0.649902 1609.38 0.649902 1620.39 0.649902 1631.4M269.075 1591.65C269.075 1605.29 269.075 1618.93 269.075 1631.4M269.075 1591.65C269.075 1603.58 269.075 1615.51 269.075 1631.4M269.075 1631.4C183.566 1631.4 98.0572 1631.4 0.649902 1631.4M269.075 1631.4C209.891 1631.4 150.706 1631.4 0.649902 1631.4" stroke="#28253D" stroke-width="1.3"/>
<path d="M0.649902 1631.4C87.6771 1631.4 174.704 1631.4 269.075 1631.4M0.649902 1631.4C61.4219 1631.4 122.194 1631.4 269.075 1631.4M0.649902 1631.4C0.649902 1654.37 0.649902 1662.76 0.649902 1671.15M0.649902 1631.4C0.649902 1641.18 0.649902 1656.16 0.649902 1671.15M269.075 1631.4C269.075 1646.43 269.075 1661.47 269.075 1671.15M269.075 1631.4C269.075 1639.6 269.075 1647.79 269.075 1671.15M269.075 1671.15C199.646 1671.15 130.216 1671.15 0.649902 1671.15M269.075 1671.15C178.334 1671.15 87.5928 1671.15 0.649902 1671.15" stroke="#28253D" stroke-width="1.3"/>
<path d="M0.649902 1671.15C102.137 1671.15 203.624 1671.15 269.075 1671.15M0.649902 1671.15C79.5147 1671.15 158.38 1671.15 269.075 1671.15M0.649902 1671.15C0.649902 1689.63 0.649902 1700.27 0.649902 1710.9M0.649902 1671.15C0.649902 1682.71 0.649902 1696.81 0.649902 1710.9M269.075 1671.15C269.075 1679.89 269.075 1688.64 269.075 1710.9M269.075 1671.15C269.075 1680.7 269.075 1690.25 269.075 1710.9M269.075 1710.9C186.424 1710.9 103.773 1710.9 0.649902 1710.9M269.075 1710.9C170.03 1710.9 70.9844 1710.9 0.649902 1710.9" stroke="#28253D" stroke-width="1.3"/>
<path d="M0.649902 1710.9C85.6565 1710.9 170.663 1710.9 269.075 1710.9M0.649902 1710.9C56.4749 1710.9 112.3 1710.9 269.075 1710.9M0.649902 1710.9C0.649902 1730.9 0.649902 1740.78 0.649902 1750.65M0.649902 1710.9C0.649902 1722.65 0.649902 1736.65 0.649902 1750.65M269.075 1710.9C269.075 1719.64 269.075 1728.37 269.075 1750.65M269.075 1710.9C269.075 1724.07 269.075 1737.24 269.075 1750.65M269.075 1750.65C200.607 1750.65 132.139 1750.65 0.649902 1750.65M269.075 1750.65C191.067 1750.65 113.059 1750.65 0.649902 1750.65" stroke="#28253D" stroke-width="1.3"/>
<path d="M0.649902 1750.65C101.537 1750.65 202.424 1750.65 269.075 1750.65M0.649902 1750.65C75.7061 1750.65 150.762 1750.65 269.075 1750.65M0.649902 1750.65C0.649902 1762.03 0.649902 1776.22 0.649902 1790.4M0.649902 1750.65C0.649902 1765.67 0.649902 1778.04 0.649902 1790.4M269.075 1750.65C269.075 1763.22 269.075 1775.78 269.075 1790.4M269.075 1750.65C269.075 1765.82 269.075 1780.99 269.075 1790.4M269.075 1790.4C173.285 1790.4 77.4953 1790.4 0.649902 1790.4M269.075 1790.4C185.495 1790.4 101.914 1790.4 0.649902 1790.4" stroke="#28253D" stroke-width="1.3"/>
<path fill-rule="evenodd" clip-rule="evenodd" d="M0.649902 1392.9L269.075 1392.9Z" fill="white"/>
<path d="M0.649902 1392.9C0.649902 1392.9 0.649902 1392.9 0.649902 1392.9ZM0.649902 1392.9C73.9903 1392.9 147.331 1392.9 269.075 1392.9M0.649902 1392.9C75.9097 1392.9 151.169 1392.9 269.075 1392.9M0.649902 1392.9C61.0049 1392.9 165.04 1392.9 269.075 1392.9M0.649902 1392.9C74.1174 1392.9 171.596 1392.9 269.075 1392.9M269.075 1392.9C269.075 1392.9 269.075 1392.9 269.075 1392.9Z" stroke="#28253D" stroke-width="1.3"/>
<path d="M100.7 1392.9C100.7 1392.9 100.7 1392.9 100.7 1392.9ZM100.7 1392.9C100.7 1527.54 100.7 1662.18 100.7 1790.4M100.7 1392.9C100.7 1479.64 100.7 1566.39 100.7 1790.4M100.7 1392.9C100.7 1593.67 100.7 1692.03 100.7 1790.4M100.7 1392.9C100.7 1584.61 100.7 1687.5 100.7 1790.4M100.7 1790.4C100.7 1790.4 100.7 1790.4 100.7 1790.4Z" stroke="#28253D" stroke-width="1.3"/>
<path d="M227.275 1392.9C227.275 1392.9 227.275 1392.9 227.275 1392.9ZM227.275 1392.9C227.275 1484.77 227.275 1576.63 227.275 1790.4M227.275 1392.9C227.275 1509.65 227.275 1626.4 227.275 1790.4M227.275 1392.9C227.275 1521.05 227.275 1655.72 227.275 1790.4M227.275 1392.9C227.275 1497.83 227.275 1644.12 227.275 1790.4M227.275 1790.4C227.275 1790.4 227.275 1790.4 227.275 1790.4Z" stroke="#28253D" stroke-width="1.3"/>
<path fill-rule="evenodd" clip-rule="evenodd" d="M0.649902 1392.9L269.075 1392.9Z" fill="white"/>
<path d="M0.649902 1392.9C0.649902 1392.9 0.649902 1392.9 0.649902 1392.9ZM0.649902 1392.9C75.7936 1392.9 150.937 1392.9 269.075 1392.9M0.649902 1392.9C80.211 1392.9 159.772 1392.9 269.075 1392.9M0.649902 1392.9C101.028 1392.9 185.051 1392.9 269.075 1392.9M0.649902 1392.9C113.143 1392.9 191.109 1392.9 269.075 1392.9M269.075 1392.9C269.075 1392.9 269.075 1392.9 269.075 1392.9Z" stroke="#28253D" stroke-width="1.3"/>
<path d="M911.5 995.15H1194.98V1313.15H911.5" fill="white"/>
<path d="M911.5 995.15C969.356 995.15 1027.21 995.15 1194.98 995.15M911.5 995.15C979.056 995.15 1046.61 995.15 1194.98 995.15M911.5 995.15C911.5 1112.66 911.5 1212.9 911.5 1313.15M911.5 995.15C911.5 1065.37 911.5 1189.26 911.5 1313.15M1194.98 995.15C1194.98 1103.78 1194.98 1212.42 1194.98 1313.15M1194.98 995.15C1194.98 1076.85 1194.98 1158.55 1194.98 1313.15M1194.98 1313.15C1101 1313.15 1007.02 1313.15 911.5 1313.15M1194.98 1313.15C1137.78 1313.15 1080.58 1313.15 911.5 1313.15" stroke="#28253D" stroke-width="1.3"/>
<path d="M911.5 1034.9C1005.41 1034.9 1099.31 1034.9 1194.98 1034.9M911.5 1034.9C979.242 1034.9 1046.98 1034.9 1194.98 1034.9M911.5 1034.9C911.5 1045.49 911.5 1060.07 911.5 1074.65M911.5 1034.9C911.5 1052.72 911.5 1063.69 911.5 1074.65M1194.98 1034.9C1194.98 1047.42 1194.98 1059.95 1194.98 1074.65M1194.98 1034.9C1194.98 1045.56 1194.98 1056.22 1194.98 1074.65M1194.98 1074.65C1124.9 1074.65 1054.83 1074.65 911.5 1074.65M1194.98 1074.65C1082.33 1074.65 969.679 1074.65 911.5 1074.65" stroke="#28253D" stroke-width="1.3"/>
<path d="M911.5 1074.65C1016.97 1074.65 1122.45 1074.65 1194.98 1074.65M911.5 1074.65C991.427 1074.65 1071.35 1074.65 1194.98 1074.65M911.5 1074.65C911.5 1097.86 911.5 1106.13 911.5 1114.4M911.5 1074.65C911.5 1098.44 911.5 1106.42 911.5 1114.4M1194.98 1074.65C1194.98 1089.14 1194.98 1103.63 1194.98 1114.4M1194.98 1074.65C1194.98 1084.01 1194.98 1093.38 1194.98 1114.4M1194.98 1114.4C1116.52 1114.4 1038.06 1114.4 911.5 1114.4M1194.98 1114.4C1091.08 1114.4 987.191 1114.4 911.5 1114.4" stroke="#28253D" stroke-width="1.3"/>
<path d="M911.5 1114.4C987.665 1114.4 1063.83 1114.4 1194.98 1114.4M911.5 1114.4C1008.22 1114.4 1104.94 1114.4 1194.98 1114.4M911.5 1114.4C911.5 1130.68 911.5 1142.41 911.5 1154.15M911.5 1114.4C911.5 1131.77 911.5 1142.96 911.5 1154.15M1194.98 1114.4C1194.98 1129.72 1194.98 1145.05 1194.98 1154.15M1194.98 1114.4C1194.98 1128.35 1194.98 1142.3 1194.98 1154.15M1194.98 1154.15C1114.46 1154.15 1033.95 1154.15 911.5 1154.15M1194.98 1154.15C1127.2 1154.15 1059.43 1154.15 911.5 1154.15" stroke="#28253D" stroke-width="1.3"/>
<path d="M911.5 1154.15C1020.96 1154.15 1130.41 1154.15 1194.98 1154.15M911.5 1154.15C1004.46 1154.15 1097.41 1154.15 1194.98 1154.15M911.5 1154.15C911.5 1169.78 911.5 1181.84 911.5 1193.9M911.5 1154.15C911.5 1170.27 911.5 1182.08 911.5 1193.9M1194.98 1154.15C1194.98 1169.34 1194.98 1184.52 1194.98 1193.9M1194.98 1154.15C1194.98 1167.81 1194.98 1181.46 1194.98 1193.9M1194.98 1193.9C1097.4 1193.9 999.822 1193.9 911.5 1193.9M1194.98 1193.9C1097.01 1193.9 999.037 1193.9 911.5 1193.9" stroke="#28253D" stroke-width="1.3"/>
<path d="M911.5 1193.9C998.173 1193.9 1084.85 1193.9 1194.98 1193.9M911.5 1193.9C971.335 1193.9 1031.17 1193.9 1194.98 1193.9M911.5 1193.9C911.5 1203.87 911.5 1218.76 911.5 1233.65M911.5 1193.9C911.5 1213.88 911.5 1223.76 911.5 1233.65M1194.98 1193.9C1194.98 1202.66 1194.98 1211.42 1194.98 1233.65M1194.98 1193.9C1194.98 1201.93 1194.98 1209.97 1194.98 1233.65M1194.98 1233.65C1126.95 1233.65 1058.92 1233.65 911.5 1233.65M1194.98 1233.65C1115.78 1233.65 1036.59 1233.65 911.5 1233.65" stroke="#28253D" stroke-width="1.3"/>
<path d="M911.5 1233.65C1009.1 1233.65 1106.7 1233.65 1194.98 1233.65M911.5 1233.65C1000.26 1233.65 1089.02 1233.65 1194.98 1233.65M911.5 1233.65C911.5 1245.18 911.5 1259.29 911.5 1273.4M911.5 1233.65C911.5 1256.63 911.5 1265.01 911.5 1273.4M1194.98 1233.65C1194.98 1243.52 1194.98 1253.39 1194.98 1273.4M1194.98 1233.65C1194.98 1248.62 1194.98 1263.59 1194.98 1273.4M1194.98 1273.4C1113.73 1273.4 1032.49 1273.4 911.5 1273.4M1194.98 1273.4C1091.09 1273.4 987.208 1273.4 911.5 1273.4" stroke="#28253D" stroke-width="1.3"/>
<path d="M911.5 1273.4C969.19 1273.4 1026.88 1273.4 1194.98 1273.4M911.5 1273.4C1000.8 1273.4 1090.1 1273.4 1194.98 1273.4M911.5 1273.4C911.5 1296.68 911.5 1304.92 911.5 1313.15M911.5 1273.4C911.5 1295.67 911.5 1304.41 911.5 1313.15M1194.98 1273.4C1194.98 1285.86 1194.98 1298.32 1194.98 1313.15M1194.98 1273.4C1194.98 1281.86 1194.98 1290.32 1194.98 1313.15M1194.98 1313.15C1099.6 1313.15 1004.22 1313.15 911.5 1313.15M1194.98 1313.15C1135.78 1313.15 1076.59 1313.15 911.5 1313.15" stroke="#28253D" stroke-width="1.3"/>
<path fill-rule="evenodd" clip-rule="evenodd" d="M911.5 1034.9L1194.98 1034.9Z" fill="white"/>
<path d="M911.5 1034.9C911.5 1034.9 911.5 1034.9 911.5 1034.9ZM911.5 1034.9C973.762 1034.9 1036.02 1034.9 1194.98 1034.9M911.5 1034.9C998.756 1034.9 1086.01 1034.9 1194.98 1034.9M911.5 1034.9C1048.41 1034.9 1121.69 1034.9 1194.98 1034.9M911.5 1034.9C998.317 1034.9 1096.65 1034.9 1194.98 1034.9M1194.98 1034.9C1194.98 1034.9 1194.98 1034.9 1194.98 1034.9Z" stroke="#28253D" stroke-width="1.3"/>
<path d="M1011.55 1034.9C1011.55 1034.9 1011.55 1034.9 1011.55 1034.9ZM1011.55 1034.9C1011.55 1117.14 1011.55 1199.38 1011.55 1313.15M1011.55 1034.9C1011.55 1118.83 1011.55 1202.76 1011.55 1313.15M1011.55 1034.9C1011.55 1137.06 1011.55 1225.1 1011.55 1313.15M1011.55 1034.9C1011.55 1092.17 1011.55 1202.66 1011.55 1313.15M1011.55 1313.15C1011.55 1313.15 1011.55 1313.15 1011.55 1313.15Z" stroke="#28253D" stroke-width="1.3"/>
<path d="M1153.17 1034.9C1153.17 1034.9 1153.17 1034.9 1153.17 1034.9ZM1153.17 1034.9C1153.17 1142.82 1153.17 1250.75 1153.17 1313.15M1153.17 1034.9C1153.17 1101.22 1153.17 1167.53 1153.17 1313.15M1153.17 1034.9C1153.17 1169.9 1153.17 1241.53 1153.17 1313.15M1153.17 1034.9C1153.17 1123.21 1153.17 1218.18 1153.17 1313.15M1153.17 1313.15C1153.17 1313.15 1153.17 1313.15 1153.17 1313.15Z" stroke="#28253D" stroke-width="1.3"/>
<path fill-rule="evenodd" clip-rule="evenodd" d="M911.5 1034.9L1194.98 1034.9Z" fill="white"/>
<path d="M911.5 1034.9C911.5 1034.9 911.5 1034.9 911.5 1034.9ZM911.5 1034.9C1023.19 1034.9 1134.88 1034.9 1194.98 1034.9M911.5 1034.9C1007.21 1034.9 1102.91 1034.9 1194.98 1034.9M911.5 1034.9C1062.72 1034.9 1128.85 1034.9 1194.98 1034.9M911.5 1034.9C974.076 1034.9 1084.53 1034.9 1194.98 1034.9M1194.98 1034.9C1194.98 1034.9 1194.98 1034.9 1194.98 1034.9Z" stroke="#28253D" stroke-width="1.3"/>
</svg>
