<?xml version="1.0" encoding="UTF-8" standalone="no"?>
<!-- Filename: b7392eefe1b7e36de2a65efda73d3f86cf7dabcb2be926a16f7ec708a0b3a6a2.svg -->
<!-- Created with https://svgstud.io -->
<svg
  version="1.1"
  xmlns="http://www.w3.org/2000/svg"
  xmlns:xlink="http://www.w3.org/1999/xlink"
  xmlns:svg="http://www.w3.org/2000/svg"
  xmlns:rdf="http://www.w3.org/1999/02/22-rdf-syntax-ns#"
  xmlns:cc="http://creativecommons.org/ns#"
  xmlns:dc="http://purl.org/dc/elements/1.1/"
  viewBox="0 0 768 768"
  width="768"
  height="768"
  role="img"
  aria-labelledby="titleID descID"
>
  <title id="titleID">Stockfish chess engine swimming on the Internet</title>
  <desc id="descID">AI-generated SVG illustration: Stockfish chess engine swimming on the Internet, created on https://svgstud.io</desc>



  <metadata id="copyright">
    Created by https://svgstud.io and licensed under CC-BY-SA 4.0 license. Please attribute https://svgstud.io
  </metadata>
  <metadata id="prompt">
    Stockfish chess engine swimming on the Internet
  </metadata>
  <metadata id="version">
    7
  </metadata>
  <metadata>
    <rdf:RDF
      xmlns:rdf="http://www.w3.org/1999/02/22-rdf-syntax-ns#"
      xmlns:cc="http://creativecommons.org/ns#"
      xmlns:dc="http://purl.org/dc/elements/1.1/"
    >
      <cc:Work rdf:about="">
        <cc:license rdf:resource="http://creativecommons.org/licenses/by-sa/4.0/" />
        <dc:creator>
          <cc:Agent>
            <dc:title>https://svgstud.io</dc:title>
          </cc:Agent>
        </dc:creator>
      </cc:Work>
      <cc:License rdf:about="http://creativecommons.org/licenses/by-sa/4.0/">
        <cc:permits rdf:resource="http://creativecommons.org/ns#Reproduction" />
        <cc:permits rdf:resource="http://creativecommons.org/ns#Distribution" />
        <cc:requires rdf:resource="http://creativecommons.org/ns#Notice" />
        <cc:requires rdf:resource="http://creativecommons.org/ns#Attribution" />
        <cc:permits rdf:resource="http://creativecommons.org/ns#DerivativeWorks" />
        <cc:requires rdf:resource="http://creativecommons.org/ns#ShareAlike" />
      </cc:License>
    </rdf:RDF>
  </metadata>
  <metadata id="uid">b7392eefe1b7e36de2a65efda73d3f86cf7dabcb2be926a16f7ec708a0b3a6a2</metadata>

  <path stroke="none" fill="black" fill-rule="evenodd" d="M373.50,689.48C367.45,689.70 360.18,689.52 357.33,689.06C354.49,688.61 349.54,687.43 346.33,686.44C343.13,685.46 324.30,676.48 304.50,666.49C284.70,656.50 254.55,640.99 237.50,632.03C220.45,623.06 194.80,609.54 180.50,601.98C166.20,594.41 149.78,585.64 144.00,582.49C138.22,579.34 131.05,575.12 128.05,573.13C124.46,570.73 121.83,568.00 120.30,565.09C118.10,560.87 118.00,559.73 118.00,538.21C118.00,515.74 118.00,515.74 121.42,512.51C123.31,510.73 129.55,507.01 135.31,504.23C141.06,501.46 146.09,498.67 146.48,498.03C146.87,497.40 146.63,495.44 145.93,493.69C145.24,491.94 140.94,483.75 136.38,475.50C131.81,467.25 127.62,458.48 127.07,456.00C126.41,453.11 126.04,414.33 126.02,347.72C126.00,262.77 126.25,243.35 127.35,240.70C128.09,238.92 130.31,236.05 132.29,234.32C134.26,232.59 143.66,226.79 153.19,221.43C162.71,216.07 175.22,208.89 181.00,205.47C186.78,202.05 198.93,194.99 208.00,189.78C217.07,184.57 239.12,171.76 257.00,161.33C274.88,150.89 294.45,139.49 300.50,136.00C306.55,132.51 321.09,124.13 332.81,117.39C344.53,110.64 356.23,104.45 358.81,103.63C361.39,102.81 366.20,101.85 369.50,101.50C373.34,101.09 378.06,101.40 382.62,102.35C386.53,103.17 392.50,105.23 395.88,106.94C399.25,108.64 411.58,115.37 423.26,121.88C434.94,128.39 460.93,143.07 481.00,154.50C501.07,165.93 524.70,179.33 533.50,184.28C542.30,189.23 555.58,196.68 563.00,200.82C570.42,204.97 585.68,213.39 596.89,219.54C608.10,225.69 618.79,231.93 620.63,233.40C622.48,234.87 624.78,237.52 625.74,239.29C627.38,242.27 627.54,249.50 628.00,340.86C628.50,439.23 628.50,439.23 632.65,442.91C635.25,445.22 637.25,448.11 638.01,450.65C638.94,453.75 638.96,455.95 638.09,460.02C637.46,462.94 633.81,472.12 629.97,480.42C626.14,488.71 623.00,496.49 623.00,497.70C623.00,499.43 624.67,500.77 630.86,503.99C635.19,506.24 639.80,509.22 641.11,510.62C643.45,513.11 643.50,513.55 643.48,531.33C643.47,541.32 643.12,551.17 642.69,553.22C642.27,555.27 640.75,558.33 639.33,560.02C637.90,561.72 634.20,564.82 631.12,566.91C628.03,568.99 616.95,575.11 606.50,580.50C596.05,585.89 587.05,590.63 586.50,591.03C585.95,591.44 551.52,608.87 510.00,629.77C468.48,650.66 425.95,671.85 415.50,676.85C405.05,681.85 393.80,686.64 390.50,687.50C387.20,688.36 379.55,689.25 373.50,689.48zM369.00,668.63C378.41,668.32 383.09,667.68 387.94,666.04C391.47,664.84 395.29,663.21 396.41,662.43C398.22,661.16 397.06,661.00 385.97,660.98C379.02,660.97 370.50,660.33 366.73,659.53C361.63,658.45 357.91,656.74 351.73,652.65C347.20,649.65 341.93,645.53 340.00,643.50C338.07,641.47 333.80,637.75 330.50,635.24C327.20,632.73 324.05,630.24 323.50,629.71C322.85,629.08 323.55,628.99 325.47,629.44C327.10,629.83 333.78,632.62 340.32,635.65C346.85,638.67 355.19,641.78 358.85,642.56C362.51,643.33 370.45,643.96 376.50,643.96C383.59,643.96 390.54,643.29 396.04,642.07C400.74,641.03 409.00,638.34 414.41,636.09C419.81,633.84 425.14,632.00 426.24,632.00C427.85,632.00 428.02,632.28 427.08,633.41C426.43,634.18 421.90,637.88 416.99,641.62C412.09,645.35 408.28,648.61 408.52,648.85C408.76,649.09 411.78,648.27 415.23,647.02C418.68,645.78 421.95,644.43 422.50,644.02C423.05,643.62 426.65,641.67 430.50,639.70C434.35,637.73 450.55,629.74 466.50,621.95C482.45,614.17 500.23,605.53 506.00,602.77C511.77,600.00 531.80,590.23 550.50,581.05C569.20,571.88 594.17,559.30 606.00,553.10C617.83,546.90 628.36,541.00 629.40,539.99C630.90,538.53 631.50,535.79 632.26,526.98C632.89,519.66 632.88,515.48 632.23,514.83C631.58,514.18 622.93,517.95 606.87,525.87C593.47,532.48 581.32,538.17 579.87,538.52C577.71,539.04 576.86,538.61 575.03,536.04C573.31,533.63 572.33,533.07 570.66,533.58C569.47,533.94 561.00,538.43 551.84,543.57C542.68,548.71 517.93,561.54 496.84,572.10C475.75,582.65 448.82,595.99 437.00,601.75C425.18,607.50 412.32,613.70 408.43,615.52C404.54,617.34 398.71,619.32 395.49,619.92C392.27,620.51 385.55,620.99 380.57,620.98C375.58,620.97 368.48,620.32 364.78,619.54C360.49,618.63 349.11,613.93 333.32,606.53C319.72,600.15 307.77,594.20 306.77,593.29C305.36,592.02 305.24,591.46 306.23,590.80C307.20,590.16 307.03,589.60 305.50,588.43C304.40,587.58 296.75,582.77 288.50,577.73C280.25,572.70 270.12,566.09 266.00,563.04C259.70,558.39 258.86,557.45 260.77,557.18C262.01,557.00 264.71,557.39 266.77,558.04C268.82,558.69 277.93,562.28 287.00,566.03C296.07,569.77 313.40,577.19 325.50,582.52C337.60,587.84 351.19,593.71 355.70,595.56C360.21,597.41 366.29,599.59 369.20,600.40C372.12,601.22 376.98,602.18 380.00,602.53C383.02,602.88 389.32,602.64 394.00,602.01C398.96,601.33 408.96,598.64 418.00,595.54C426.52,592.63 435.07,589.55 437.00,588.70C440.40,587.21 440.16,587.16 428.25,587.08C421.51,587.04 416.00,586.66 416.00,586.25C416.00,585.84 418.14,584.08 420.75,582.33C423.36,580.59 427.75,578.06 430.50,576.70C433.25,575.34 444.27,570.30 455.00,565.50C465.73,560.69 481.25,553.83 489.50,550.25C497.75,546.66 507.88,542.27 512.00,540.49C516.12,538.70 522.42,535.90 526.00,534.27C529.58,532.63 536.92,529.37 542.31,527.01C547.71,524.65 551.76,522.37 551.31,521.94C550.87,521.50 539.25,517.10 525.50,512.16C511.75,507.22 491.95,499.97 481.50,496.05C471.05,492.14 461.45,488.49 460.17,487.95C458.89,487.41 458.02,486.42 458.23,485.74C458.45,485.06 461.57,483.50 465.18,482.29C468.79,481.07 476.64,479.13 482.62,477.97C488.60,476.82 499.28,474.75 506.33,473.38C513.39,472.01 520.33,470.45 521.75,469.91C523.53,469.23 524.01,468.61 523.28,467.88C522.71,467.31 515.78,465.54 507.87,463.95C499.97,462.36 492.47,460.81 491.21,460.50C489.95,460.19 489.15,459.57 489.43,459.12C489.70,458.67 493.89,458.00 498.72,457.63C503.55,457.26 513.80,456.05 521.50,454.93C529.20,453.81 539.10,451.99 543.50,450.87C547.90,449.76 553.45,447.99 555.82,446.95C559.19,445.47 560.07,444.59 559.82,442.97C559.59,441.45 556.17,439.16 547.00,434.36C540.12,430.76 529.22,424.92 522.76,421.38C516.31,417.85 506.00,412.49 499.86,409.48C493.73,406.46 487.93,404.00 486.98,404.00C486.03,404.00 480.81,408.65 475.38,414.33C468.25,421.77 463.69,427.70 459.02,435.58C455.45,441.58 451.05,448.14 449.24,450.15C447.42,452.16 442.47,455.61 438.22,457.80C433.97,460.00 426.90,463.04 422.50,464.56C418.10,466.07 414.08,467.69 413.56,468.14C412.99,468.65 413.29,471.07 414.33,474.39C415.27,477.37 418.46,483.11 421.41,487.15C424.36,491.19 429.13,496.48 432.00,498.91C434.88,501.33 437.84,504.76 438.57,506.52C439.56,508.88 439.65,510.68 438.93,513.30C438.31,515.55 436.13,518.50 433.00,521.31C429.92,524.08 425.14,526.93 420.28,528.88C416.00,530.61 407.10,533.44 400.50,535.17C389.14,538.16 387.54,538.32 370.50,538.30C356.68,538.28 349.80,537.79 340.89,536.18C334.50,535.02 324.83,532.66 319.39,530.92C313.95,529.19 302.98,525.06 295.00,521.76C287.02,518.45 278.34,514.71 275.71,513.44C273.07,512.18 269.57,510.84 267.91,510.48C266.26,510.12 262.57,510.38 259.71,511.05C256.84,511.73 245.72,515.61 235.00,519.67C224.28,523.72 213.93,527.76 212.00,528.64C208.50,530.23 208.50,530.23 218.50,535.18C224.00,537.90 229.60,540.84 230.95,541.71C233.40,543.31 233.40,543.31 231.06,544.17C229.43,544.78 224.89,544.14 216.11,542.08C209.17,540.46 201.71,538.84 199.52,538.48C197.34,538.12 191.94,536.69 187.52,535.31C183.11,533.92 174.55,530.34 168.50,527.35C162.45,524.36 156.63,521.26 155.57,520.46C153.67,519.04 153.67,518.98 155.67,516.76C156.79,515.52 158.02,513.95 158.40,513.27C158.78,512.59 158.61,511.13 158.01,510.02C157.42,508.91 156.07,508.00 155.02,508.00C153.98,508.00 149.83,509.18 145.81,510.62C141.79,512.07 136.25,514.37 133.50,515.74C130.75,517.12 128.32,518.40 128.11,518.60C127.89,518.79 127.80,522.67 127.91,527.22C128.01,531.78 128.52,538.50 129.03,542.17C129.55,545.84 130.51,550.04 131.18,551.50C131.85,552.96 133.71,554.83 135.33,555.67C138.24,557.17 138.26,557.16 137.79,554.66C137.52,553.27 137.62,551.61 138.01,550.98C138.50,550.18 141.50,551.29 147.61,554.53C152.50,557.12 157.33,560.03 158.35,561.00C159.37,561.97 159.80,563.01 159.30,563.32C158.80,563.62 155.27,562.78 151.45,561.44C147.63,560.10 144.05,559.16 143.50,559.35C142.95,559.53 145.12,561.36 148.32,563.42C151.52,565.47 162.10,571.41 171.82,576.61C181.54,581.81 214.02,598.43 244.00,613.53C273.98,628.63 308.85,646.39 321.50,652.99C334.15,659.60 347.20,665.91 350.50,667.01C355.58,668.72 358.41,668.97 369.00,668.63zM270.95,605.98C270.15,605.96 265.68,604.22 261.00,602.11C256.32,600.00 241.70,593.12 228.50,586.83C215.30,580.54 196.02,571.36 185.65,566.44C175.28,561.52 165.72,556.43 164.40,555.11C162.61,553.33 162.00,551.64 162.00,548.43C162.00,546.06 161.54,542.91 160.97,541.41C160.40,539.92 157.14,536.07 153.72,532.86C150.30,529.65 147.85,527.02 148.28,527.01C148.71,527.01 153.21,529.10 158.28,531.68C163.35,534.25 173.80,539.47 181.50,543.28C189.20,547.09 199.78,552.24 205.00,554.73C210.22,557.21 221.25,562.37 229.50,566.17C237.75,569.98 252.21,577.20 261.63,582.20C271.05,587.21 280.95,592.91 283.63,594.87C288.50,598.43 288.50,598.43 283.30,599.46C279.99,600.12 277.07,601.50 275.25,603.25C273.68,604.76 271.74,605.99 270.95,605.98zM385.00,578.71C380.40,578.92 377.18,578.47 374.00,577.16C371.52,576.15 367.36,574.30 364.75,573.05C362.14,571.80 360.00,570.38 360.00,569.89C360.00,569.40 360.79,569.02 361.75,569.03C362.71,569.05 366.98,569.69 371.23,570.45C377.62,571.59 379.89,571.60 384.23,570.54C387.13,569.84 393.49,568.08 398.36,566.63C403.24,565.18 409.42,564.00 412.11,564.00C414.80,564.00 417.00,564.34 416.99,564.75C416.99,565.16 415.48,566.53 413.64,567.78C411.79,569.04 406.06,571.94 400.89,574.24C393.61,577.47 390.04,578.48 385.00,578.71zM581.14,529.39C581.49,529.19 586.44,521.82 592.14,513.01C597.84,504.21 604.72,493.52 607.44,489.25C610.16,484.99 615.90,475.71 620.19,468.64C625.68,459.61 628.00,454.82 628.00,452.54C628.00,450.58 627.21,448.60 626.00,447.50C624.07,445.75 623.92,445.76 621.77,447.60C620.55,448.64 618.30,450.78 616.78,452.35C615.26,453.91 612.55,457.46 610.76,460.24C607.50,465.29 607.50,465.29 607.19,461.18C607.03,458.92 607.38,451.54 607.99,444.79C608.60,438.03 609.55,417.43 610.11,399.00C610.68,379.93 610.84,341.13 610.48,308.92C609.90,258.60 610.01,251.92 611.42,248.55C612.29,246.46 613.00,243.95 613.00,242.96C613.00,241.69 609.34,239.24 600.25,234.44C593.24,230.74 572.88,219.62 555.00,209.72C537.12,199.83 516.65,188.48 509.50,184.50C502.35,180.52 490.43,173.88 483.00,169.74C475.57,165.60 459.60,156.49 447.50,149.50C435.40,142.51 419.88,133.63 413.00,129.77C406.12,125.90 396.45,120.37 391.50,117.47C386.55,114.57 380.70,111.71 378.50,111.10C376.30,110.50 372.48,110.02 370.00,110.04C367.52,110.05 363.25,110.85 360.50,111.82C357.75,112.78 348.30,117.86 339.50,123.10C330.70,128.35 310.45,140.45 294.50,149.99C278.55,159.54 261.68,169.58 257.00,172.31C252.32,175.04 244.72,179.46 240.11,182.13C235.49,184.81 231.55,187.00 231.35,187.00C231.15,187.00 223.23,191.68 213.75,197.39C204.26,203.11 187.63,212.95 176.78,219.27C165.94,225.60 153.63,232.51 149.43,234.63C145.23,236.76 140.54,239.64 139.02,241.04C136.24,243.58 136.24,243.58 135.61,285.04C135.27,307.84 134.87,353.95 134.74,387.50C134.50,448.50 134.50,448.50 153.63,480.50C164.15,498.10 174.16,514.98 175.89,518.00C177.61,521.02 179.62,524.27 180.34,525.21C181.07,526.15 182.89,527.39 184.40,527.96C185.90,528.53 187.78,529.00 188.57,529.00C189.55,529.00 190.01,527.83 190.03,525.25C190.06,522.10 190.26,521.75 191.28,523.08C191.95,523.94 193.75,525.46 195.28,526.46C196.81,527.46 198.34,527.99 198.68,527.65C199.02,527.31 199.52,522.61 199.78,517.21C200.15,509.35 199.92,506.74 198.60,504.18C197.69,502.43 191.28,492.84 184.36,482.87C177.44,472.91 169.63,461.23 167.00,456.91C164.10,452.13 162.02,447.38 161.68,444.78C161.38,442.43 161.44,400.20 161.81,350.95C162.45,268.05 162.63,261.21 164.25,258.74C165.21,257.27 166.00,255.83 166.00,255.54C166.00,255.24 164.89,255.00 163.54,255.00C162.02,255.00 160.62,254.15 159.89,252.80C158.86,250.87 159.09,250.29 161.77,248.05C163.45,246.65 169.93,242.61 176.17,239.08C182.40,235.54 193.35,229.18 200.50,224.94C207.65,220.69 219.57,213.65 227.00,209.28C234.43,204.91 250.18,195.45 262.00,188.26C273.82,181.07 287.22,172.79 291.77,169.85C296.32,166.91 304.65,161.68 310.27,158.24C315.90,154.80 326.80,148.09 334.50,143.33C342.20,138.57 353.20,131.81 358.94,128.31C364.68,124.81 370.44,121.68 371.74,121.35C373.03,121.03 374.34,121.01 374.65,121.31C374.95,121.62 375.24,122.91 375.29,124.19C375.33,125.46 375.00,148.89 374.56,176.25C373.75,226.00 373.75,226.00 383.63,226.04C389.06,226.06 398.00,226.47 403.49,226.96C408.98,227.45 413.64,227.69 413.84,227.50C414.03,227.30 414.58,222.27 415.06,216.32C415.54,210.37 416.24,196.84 416.62,186.25C417.06,173.87 417.68,167.00 418.36,167.00C418.94,167.00 426.86,171.13 435.96,176.18C445.06,181.22 463.52,191.65 477.00,199.34C490.48,207.03 505.10,215.33 509.50,217.78C513.90,220.23 523.12,225.50 530.00,229.49C536.88,233.48 552.17,242.02 564.00,248.47C575.83,254.92 586.49,261.17 587.70,262.35C589.89,264.50 589.89,264.50 590.58,367.00C591.08,441.67 590.96,470.61 590.14,473.58C589.52,475.82 585.43,482.80 581.04,489.08C576.65,495.36 570.98,503.76 568.43,507.75C565.69,512.03 563.73,516.30 563.65,518.18C563.51,521.21 563.89,521.55 572.00,525.56C576.67,527.86 580.79,529.59 581.14,529.39zM396.00,516.84C400.12,516.89 406.83,516.51 410.91,515.98C414.98,515.45 418.55,514.79 418.83,514.51C419.10,514.23 419.11,513.78 418.84,513.51C418.58,513.24 411.10,511.90 402.23,510.54C393.36,509.17 382.86,506.92 378.91,505.54C374.96,504.15 370.10,501.81 368.11,500.32C366.12,498.83 361.35,494.58 357.49,490.87C353.64,487.17 349.22,483.48 347.68,482.68C346.14,481.88 344.00,481.45 342.94,481.73C341.87,482.01 341.00,482.89 341.00,483.70C341.00,484.51 343.30,488.50 346.12,492.58C348.93,496.65 354.32,502.89 358.09,506.44C362.74,510.83 366.25,513.26 369.02,514.00C371.26,514.61 376.56,515.47 380.80,515.92C385.03,516.37 391.88,516.78 396.00,516.84zM423.32,508.88C427.39,508.98 428.09,508.73 427.81,507.27C427.63,506.32 424.24,503.40 420.27,500.78C415.96,497.94 410.84,493.33 407.57,489.37C402.44,483.14 402.05,482.30 401.42,475.86C401.02,471.85 400.27,469.00 399.62,469.00C399.00,469.00 393.77,470.36 388.00,472.02C382.22,473.68 373.01,475.96 367.52,477.08C362.03,478.21 357.39,479.28 357.21,479.45C357.04,479.63 359.16,482.49 361.93,485.82C364.70,489.15 368.44,492.99 370.23,494.35C372.03,495.72 375.30,497.52 377.50,498.37C379.70,499.21 387.19,501.51 394.15,503.47C401.11,505.44 409.44,507.43 412.65,507.90C415.87,508.37 420.67,508.81 423.32,508.88zM299.00,480.49C310.82,480.24 324.55,479.40 329.50,478.63C334.45,477.85 340.52,476.69 343.00,476.04C345.48,475.39 351.32,473.48 356.00,471.80C360.68,470.11 367.04,467.46 370.13,465.91C373.39,464.28 377.47,461.10 379.78,458.39C381.99,455.81 385.53,450.40 387.65,446.36C389.77,442.32 391.81,439.02 392.19,439.01C392.57,439.00 393.02,440.69 393.19,442.75C393.46,445.99 393.80,446.46 395.75,446.19C396.99,446.02 398.00,446.28 398.00,446.77C398.00,447.27 396.15,450.25 393.90,453.40C391.64,456.55 389.99,459.32 390.22,459.56C390.46,459.79 395.56,458.37 401.57,456.40C407.58,454.44 415.69,451.28 419.59,449.38C423.48,447.48 428.89,443.80 431.60,441.21C434.31,438.62 439.45,433.00 443.01,428.71C446.58,424.43 454.90,416.09 461.50,410.19C468.10,404.29 476.88,396.69 481.00,393.30C485.12,389.91 494.12,382.46 501.00,376.73C507.88,371.01 513.99,365.69 514.59,364.92C515.35,363.92 515.40,359.91 514.76,351.51C514.26,344.91 513.68,339.34 513.46,339.13C513.25,338.92 507.94,340.83 501.65,343.37C495.37,345.92 489.77,348.00 489.21,348.00C488.65,348.00 488.16,345.86 488.13,343.25C488.09,340.64 487.63,337.04 487.10,335.25C486.26,332.39 486.37,332.00 488.02,332.00C489.06,332.00 490.72,333.15 491.70,334.55C492.69,335.95 494.20,338.02 495.05,339.16C496.60,341.22 496.62,341.22 503.87,337.57C509.48,334.74 511.37,333.23 512.17,330.95C512.73,329.33 513.55,328.00 513.98,328.00C514.40,328.00 515.31,328.67 515.99,329.49C516.68,330.33 517.65,336.50 518.20,343.64C518.91,352.80 518.87,356.99 518.05,358.78C517.43,360.14 517.14,361.47 517.40,361.73C517.65,361.99 519.54,361.65 521.58,360.97C523.77,360.25 527.80,359.96 531.39,360.27C534.75,360.56 545.15,363.12 554.50,365.97C563.85,368.81 574.09,371.74 577.25,372.48C580.41,373.22 583.22,373.45 583.51,372.99C583.79,372.53 581.61,368.63 578.67,364.33C575.72,360.02 572.45,354.93 571.41,353.00C570.10,350.60 569.35,346.67 569.00,340.50C568.50,331.50 568.50,331.50 558.33,331.00C552.74,330.73 547.84,330.18 547.44,329.78C547.05,329.38 547.89,328.61 549.31,328.07C550.73,327.53 555.02,326.14 558.85,324.98C562.67,323.82 566.52,322.33 567.39,321.68C568.51,320.85 569.28,317.59 570.00,310.64C570.55,305.21 571.91,296.36 573.00,290.98C574.10,285.59 575.00,280.62 575.00,279.94C575.00,279.13 574.29,279.33 572.99,280.51C571.89,281.51 568.69,285.90 565.88,290.28C563.08,294.65 557.90,301.37 554.38,305.20C550.87,309.03 548.20,312.52 548.47,312.95C548.74,313.38 550.20,313.51 551.73,313.24C553.64,312.91 551.78,314.54 545.74,318.48C539.87,322.33 536.79,325.01 536.38,326.62C536.05,327.94 536.17,331.61 536.64,334.76C537.50,340.50 537.50,340.50 541.00,340.37C542.93,340.30 548.77,340.88 553.99,341.66C559.21,342.44 563.84,343.44 564.28,343.88C564.72,344.32 564.43,345.23 563.63,345.89C562.50,346.83 560.22,346.84 553.44,345.93C548.61,345.29 541.68,345.07 537.97,345.43C531.24,346.10 531.24,346.10 530.67,341.80C530.36,339.43 529.83,335.25 529.49,332.50C528.88,327.50 528.88,327.50 536.97,317.00C541.42,311.23 547.62,303.20 550.73,299.17C553.85,295.14 560.00,288.25 564.40,283.85C568.80,279.45 573.56,275.24 574.98,274.51C576.41,273.77 578.21,271.98 578.99,270.52C580.22,268.22 580.21,267.75 578.95,266.95C578.15,266.44 576.38,266.03 575.00,266.04C573.62,266.04 570.01,267.07 566.98,268.32C563.94,269.57 559.21,272.11 556.48,273.95C553.74,275.80 547.00,281.86 541.50,287.41C535.56,293.40 528.80,301.56 524.87,307.50C521.22,313.00 517.32,318.33 516.19,319.34C515.07,320.35 512.43,321.63 510.32,322.18C508.09,322.77 486.37,323.31 458.00,323.47C419.81,323.69 406.84,324.10 397.00,325.41C390.12,326.32 377.98,328.38 370.00,329.98C362.02,331.59 347.40,335.37 337.50,338.39C327.60,341.40 315.45,345.51 310.50,347.50C305.55,349.50 296.55,353.46 290.50,356.31C284.45,359.15 275.99,363.41 271.71,365.76C267.42,368.11 257.14,374.19 248.85,379.27C240.57,384.34 229.00,392.30 223.15,396.95C217.29,401.59 208.80,409.06 204.27,413.54C199.75,418.03 195.64,422.78 195.14,424.10C194.64,425.42 194.61,427.21 195.07,428.09C195.52,428.96 201.66,432.18 208.70,435.24C215.74,438.30 223.39,441.31 225.70,441.93C228.01,442.55 236.07,443.70 243.62,444.49C251.17,445.29 257.76,446.36 258.26,446.86C258.77,447.37 259.03,448.62 258.83,449.64C258.56,451.10 257.40,451.57 253.49,451.84C250.75,452.02 244.45,451.64 239.50,450.99C234.55,450.34 227.80,449.19 224.50,448.43C221.20,447.67 213.80,445.47 208.05,443.53C202.31,441.59 197.47,440.00 197.30,440.00C197.14,440.00 197.00,441.01 197.00,442.25C197.01,443.49 197.84,445.87 198.87,447.55C200.46,450.16 202.22,451.05 211.11,453.76C216.83,455.50 223.75,457.42 226.49,458.02C229.24,458.62 235.99,459.76 241.49,460.54C247.00,461.32 256.53,461.97 262.68,461.98C268.84,461.99 275.07,461.54 276.53,460.99C278.00,460.43 281.83,457.30 285.05,454.03C288.27,450.76 290.62,448.85 290.27,449.79C289.71,451.26 289.85,451.32 291.26,450.17C292.16,449.44 293.70,446.52 294.69,443.67C296.04,439.83 296.48,435.67 296.43,427.50C296.37,418.97 295.73,414.07 293.60,405.66C292.09,399.70 291.11,394.55 291.43,394.23C291.76,393.91 292.69,394.51 293.50,395.57C294.32,396.63 296.11,399.75 297.48,402.50C298.85,405.25 300.94,411.30 302.11,415.95C303.82,422.72 304.15,426.42 303.80,434.48C303.44,442.53 302.84,445.66 300.81,450.03C299.42,453.04 296.38,457.63 294.06,460.24C289.84,464.99 289.84,464.99 296.17,464.42C299.65,464.11 304.42,463.18 306.77,462.34C309.23,461.47 312.09,459.43 313.53,457.55C314.90,455.75 316.75,451.85 317.63,448.89C318.84,444.80 319.12,440.61 318.79,431.50C318.41,420.92 317.92,418.24 314.68,408.84C312.66,402.98 311.00,397.61 311.00,396.90C311.00,396.19 312.62,397.16 314.59,399.05C316.57,400.95 319.44,404.98 320.98,408.00C322.52,411.02 324.50,415.93 325.38,418.89C326.26,421.86 327.25,427.71 327.58,431.89C328.00,437.10 327.70,441.82 326.63,446.86C325.77,450.90 323.55,456.97 321.70,460.34C319.03,465.21 317.39,466.95 313.66,468.87C309.44,471.05 307.39,471.33 292.64,471.78C283.28,472.06 271.50,471.77 265.08,471.10C258.91,470.45 247.32,468.80 239.31,467.42C231.30,466.04 224.48,465.19 224.14,465.52C223.81,465.86 224.65,467.00 226.01,468.06C227.38,469.11 230.97,470.92 233.99,472.06C237.01,473.21 243.31,475.07 247.99,476.18C252.67,477.30 261.23,478.83 267.00,479.57C274.20,480.51 284.25,480.79 299.00,480.49zM404.28,449.96C403.85,449.94 405.07,448.56 407.00,446.90C408.93,445.24 414.96,441.20 420.41,437.93C425.85,434.66 430.45,432.12 430.62,432.29C430.79,432.46 429.76,433.85 428.34,435.39C426.91,436.93 423.44,439.66 420.62,441.46C417.80,443.26 413.15,445.91 410.28,447.36C407.41,448.81 404.71,449.98 404.28,449.96zM342.61,447.54C337.36,448.02 334.93,447.92 335.35,447.25C335.69,446.69 338.57,445.92 341.74,445.53C344.91,445.15 351.92,443.97 357.32,442.92C362.73,441.86 368.58,441.04 370.32,441.08C373.50,441.16 373.50,441.16 370.28,442.57C368.52,443.34 363.34,444.62 358.78,445.40C354.23,446.18 346.95,447.15 342.61,447.54zM560.25,430.99C560.66,430.99 560.98,429.99 560.96,428.75C560.94,427.51 560.35,423.57 559.65,420.00C558.95,416.43 556.47,409.23 554.15,404.00C551.82,398.77 547.57,390.02 544.71,384.55C541.84,379.07 538.94,374.42 538.25,374.21C537.48,373.98 534.51,379.07 530.50,387.54C526.92,395.08 524.00,402.39 524.00,403.78C524.00,405.47 525.41,407.62 528.25,410.26C530.59,412.44 535.68,416.38 539.58,419.02C543.47,421.67 549.54,425.44 553.08,427.40C556.61,429.37 559.84,430.98 560.25,430.99zM238.77,429.56C238.62,429.71 237.10,429.24 235.40,428.53C233.69,427.81 231.27,425.79 230.02,424.03C228.24,421.53 227.87,419.98 228.30,416.80C228.67,414.06 229.91,411.64 232.17,409.29C234.00,407.39 236.72,405.19 238.20,404.41C239.69,403.64 242.97,403.00 245.50,403.00C248.03,403.00 251.31,403.63 252.80,404.40C254.28,405.18 256.52,406.91 257.77,408.24C259.02,409.58 260.44,412.04 260.91,413.70C261.39,415.35 261.54,417.93 261.26,419.42C260.97,420.91 259.28,423.68 257.50,425.57C254.76,428.47 253.59,429.00 249.83,429.00C247.39,429.00 244.86,428.46 244.20,427.80C243.54,427.14 243.00,425.81 243.00,424.85C243.00,423.88 243.53,421.93 244.18,420.51C245.15,418.38 245.83,418.02 248.05,418.51C250.00,418.94 250.92,418.65 251.37,417.48C251.71,416.59 251.53,414.99 250.97,413.94C250.40,412.89 248.83,411.74 247.47,411.40C246.11,411.06 243.86,411.07 242.47,411.42C241.08,411.77 239.05,413.50 237.97,415.28C236.89,417.05 236.01,419.62 236.01,421.00C236.01,422.38 236.69,424.80 237.52,426.40C238.36,427.99 238.92,429.42 238.77,429.56zM361.25,429.75C360.32,430.06 360.00,428.18 360.00,422.46C360.00,414.76 360.00,414.76 348.25,415.47C340.78,415.93 336.86,415.84 337.50,415.23C338.05,414.71 341.64,413.51 345.48,412.57C349.32,411.63 353.03,410.39 353.73,409.81C354.43,409.23 355.00,406.84 355.00,404.51C355.00,402.17 354.33,396.49 353.51,391.88C352.70,387.27 351.83,382.50 351.58,381.27C351.33,380.05 351.49,378.82 351.93,378.54C352.37,378.27 353.45,378.84 354.32,379.80C355.19,380.77 357.08,384.12 358.52,387.26C360.24,391.02 361.36,395.65 361.81,400.86C362.50,408.76 362.50,408.76 371.23,405.19C376.03,403.23 380.29,401.96 380.70,402.36C381.10,402.77 380.95,403.86 380.37,404.80C379.79,405.73 376.55,407.62 373.19,409.00C369.82,410.38 366.52,412.06 365.85,412.73C365.18,413.41 364.15,417.43 363.57,421.65C362.95,426.07 361.97,429.51 361.25,429.75zM397.16,426.00C396.49,426.00 396.64,424.72 397.56,422.52C398.36,420.60 399.35,416.67 399.77,413.77C400.34,409.83 400.95,408.50 402.20,408.49C403.12,408.48 404.96,407.44 406.30,406.19C408.74,403.90 408.74,403.90 409.36,406.20C409.70,407.46 409.98,409.96 409.99,411.75C410.00,414.62 410.32,415.00 412.75,415.04C415.50,415.07 415.50,415.07 412.50,417.53C410.85,418.88 406.96,421.34 403.86,422.99C400.76,424.65 397.74,426.00 397.16,426.00zM428.03,409.00C427.46,409.00 427.00,408.69 427.00,408.31C427.00,407.94 428.01,406.55 429.25,405.22C431.33,402.99 431.49,401.99 431.31,391.66C431.19,384.56 430.43,377.86 429.23,373.25C428.20,369.26 427.68,366.00 428.08,366.00C428.48,366.00 430.01,368.05 431.49,370.56C433.09,373.30 434.80,378.59 435.75,383.77C437.04,390.80 437.54,392.08 438.42,390.62C439.01,389.63 440.03,388.08 440.67,387.16C441.31,386.25 442.04,385.73 442.29,386.00C442.54,386.28 443.06,389.02 443.43,392.11C444.05,397.24 443.88,397.99 441.42,400.91C439.95,402.66 436.56,405.20 433.90,406.55C431.24,407.90 428.60,409.00 428.03,409.00zM388.13,401.00C387.67,401.00 387.00,396.02 386.63,389.93C386.26,383.85 385.85,378.39 385.73,377.81C385.60,377.23 386.01,376.56 386.62,376.33C387.24,376.10 388.49,377.77 389.40,380.04C390.31,382.30 391.32,386.81 391.66,390.04C392.14,394.61 391.91,396.49 390.62,398.46C389.70,399.86 388.58,401.00 388.13,401.00zM451.52,396.00C451.23,396.00 451.00,395.75 451.00,395.43C451.00,395.12 451.43,394.06 451.96,393.08C452.48,392.09 453.41,388.19 454.01,384.39C454.62,380.60 455.52,377.09 456.02,376.59C456.56,376.04 457.28,376.64 457.82,378.09C458.31,379.41 459.01,382.80 459.37,385.61C460.03,390.71 460.03,390.72 456.04,393.36C453.84,394.81 451.81,396.00 451.52,396.00zM213.26,392.00C213.84,392.00 216.61,390.29 219.41,388.20C222.21,386.11 227.65,382.36 231.50,379.86C235.35,377.36 240.97,373.74 244.00,371.82C247.03,369.90 251.75,366.95 254.50,365.26C257.25,363.57 265.94,358.80 273.82,354.67C281.69,350.53 293.39,344.80 299.82,341.93C306.24,339.07 313.38,336.08 315.69,335.29C317.99,334.50 320.29,333.32 320.80,332.68C321.31,332.03 324.94,324.54 328.86,316.03C332.79,307.51 338.11,297.05 340.70,292.77C343.29,288.49 347.34,282.53 349.70,279.52C352.06,276.52 355.12,273.32 356.50,272.41C358.64,271.00 359.70,270.94 363.75,271.94C366.36,272.58 373.45,274.94 379.50,277.18C388.65,280.56 391.63,281.22 397.23,281.11C402.77,281.00 405.66,281.63 413.45,284.61C420.63,287.36 423.75,288.08 426.33,287.60C428.57,287.18 432.25,284.68 437.20,280.23C441.32,276.53 448.86,269.90 453.96,265.50C459.07,261.10 468.25,253.60 474.37,248.82C480.49,244.05 488.99,238.28 493.25,236.01C498.67,233.11 501.63,232.07 503.12,232.54C504.46,232.96 505.57,232.71 506.11,231.86C506.58,231.11 506.98,229.25 506.98,227.73C507.00,225.66 506.34,224.70 504.43,223.98C503.02,223.44 500.31,223.00 498.41,223.00C496.51,223.00 492.40,223.89 489.29,224.99C486.18,226.08 481.20,228.44 478.22,230.24C475.24,232.03 467.88,237.21 461.87,241.75C455.86,246.29 450.46,250.00 449.86,250.00C449.26,250.00 440.11,247.52 429.53,244.50C418.95,241.47 405.61,238.27 399.90,237.39C392.37,236.24 385.77,235.95 376.00,236.35C368.57,236.65 357.77,237.82 352.00,238.94C346.23,240.07 336.55,242.54 330.50,244.42C324.45,246.31 317.02,248.74 314.00,249.82C310.98,250.91 303.55,253.88 297.51,256.44C291.46,258.99 279.09,264.95 270.01,269.67C260.93,274.40 247.88,281.44 241.00,285.32C234.12,289.20 218.60,298.65 206.50,306.32C194.40,313.99 183.71,321.01 182.75,321.92C181.19,323.38 180.92,326.67 180.33,351.28C179.97,366.53 179.93,379.00 180.24,379.00C180.56,379.00 182.01,376.96 183.47,374.46C184.93,371.96 187.54,368.32 189.26,366.36C190.98,364.40 195.87,360.15 200.12,356.91C204.37,353.67 212.70,347.87 218.62,344.01C224.55,340.16 229.98,337.00 230.70,337.00C231.41,337.00 232.00,337.47 232.00,338.05C232.00,338.63 231.35,340.37 230.54,341.91C229.74,343.46 224.96,348.62 219.90,353.38C214.85,358.13 208.16,363.73 205.04,365.81C201.45,368.21 199.53,370.13 199.82,371.05C200.07,371.85 202.96,376.89 206.24,382.25C209.51,387.61 212.67,392.00 213.26,392.00zM310.85,387.00C310.33,387.00 309.23,385.31 308.40,383.25C307.58,381.19 306.37,378.41 305.71,377.09C305.04,375.76 303.15,373.82 301.50,372.77C299.04,371.21 297.27,370.96 291.67,371.38C286.04,371.81 285.04,371.66 285.95,370.56C286.56,369.82 289.34,368.24 292.13,367.04C294.91,365.84 298.53,364.82 300.15,364.78C301.78,364.73 304.30,365.58 305.74,366.66C307.19,367.74 309.22,369.76 310.25,371.14C311.29,372.52 312.51,375.35 312.98,377.42C313.50,379.71 313.43,382.32 312.82,384.09C312.26,385.69 311.38,387.00 310.85,387.00zM477.91,379.00C477.25,379.00 477.06,378.28 477.46,377.25C477.83,376.29 478.86,372.80 479.76,369.50C480.66,366.20 482.21,362.60 483.20,361.50C484.19,360.40 485.61,358.64 486.35,357.60C487.09,356.55 488.21,356.01 488.85,356.41C489.50,356.81 490.00,359.58 490.00,362.75C490.00,368.27 489.88,368.50 484.52,373.69C481.51,376.61 478.53,379.00 477.91,379.00zM341.94,375.00C339.47,375.00 339.20,374.60 338.58,369.87C338.07,366.05 337.13,363.97 334.89,361.73C331.92,358.76 331.78,358.73 324.69,359.49C320.74,359.91 316.60,360.31 315.50,360.38C314.40,360.45 313.33,360.05 313.12,359.50C312.91,358.95 316.46,356.57 321.03,354.20C329.32,349.91 329.32,349.91 334.87,352.70C337.92,354.24 341.65,357.07 343.16,359.00C344.67,360.93 346.48,364.68 347.18,367.34C348.36,371.80 348.31,372.30 346.54,373.59C345.48,374.37 343.41,375.00 341.94,375.00zM377.43,369.00C376.44,369.00 376.00,367.83 376.00,365.15C376.00,363.03 375.48,359.77 374.85,357.90C374.21,356.03 372.86,353.30 371.84,351.83C370.49,349.90 368.53,348.85 364.74,348.04C361.23,347.28 358.44,345.88 356.25,343.76C354.46,342.03 353.00,340.18 353.00,339.66C353.00,339.12 355.28,338.96 358.37,339.27C361.33,339.58 365.71,340.82 368.12,342.02C370.53,343.23 374.19,345.83 376.26,347.82C378.40,349.87 380.87,353.71 382.01,356.75C383.10,359.68 384.00,363.19 384.00,364.56C384.00,366.31 383.24,367.34 381.43,368.02C380.02,368.56 378.22,369.00 377.43,369.00zM402.61,360.52C401.30,362.31 401.14,362.17 400.11,358.46C399.51,356.28 399.00,353.60 398.98,352.50C398.97,351.40 398.12,348.66 397.10,346.42C396.08,344.17 393.17,340.63 390.62,338.55C388.08,336.46 386.00,334.36 386.00,333.88C386.00,333.40 387.46,333.01 389.25,333.02C391.04,333.02 393.01,333.36 393.63,333.77C394.25,334.17 396.44,336.71 398.49,339.41C400.55,342.11 402.63,345.71 403.12,347.40C403.60,349.10 404.00,352.32 404.00,354.55C404.00,356.79 403.37,359.48 402.61,360.52zM420.31,362.00C416.30,362.00 415.00,361.64 415.00,360.53C415.00,359.71 416.32,358.37 417.94,357.53C419.55,356.70 421.15,355.57 421.48,355.03C421.82,354.49 421.58,352.12 420.95,349.77C420.33,347.42 418.69,344.02 417.32,342.21C415.95,340.40 412.62,337.26 409.92,335.24C407.21,333.22 405.00,331.22 405.00,330.79C405.00,330.35 406.97,330.00 409.38,330.00C413.28,330.00 414.27,330.52 418.44,334.75C421.02,337.36 424.20,341.31 425.53,343.53C426.89,345.82 428.23,350.09 428.62,353.43C429.21,358.47 429.05,359.49 427.46,360.65C426.45,361.39 423.23,362.00 420.31,362.00zM452.92,361.00C451.58,361.00 450.93,360.00 450.50,357.25C450.17,355.19 449.41,350.58 448.80,347.01C447.78,341.06 447.24,340.10 442.34,335.39C439.40,332.57 437.00,329.75 437.00,329.13C437.00,328.51 438.06,328.00 439.37,328.00C440.67,328.00 443.03,329.01 444.61,330.25C446.20,331.49 448.49,333.62 449.72,335.00C450.94,336.38 452.67,339.01 453.56,340.85C454.46,342.70 455.63,347.34 456.16,351.18C456.87,356.31 456.81,358.52 455.94,359.57C455.29,360.36 453.93,361.00 452.92,361.00zM522.53,354.56C521.20,356.32 521.06,355.75 521.05,348.50C521.04,344.10 521.41,339.90 521.87,339.17C522.47,338.23 522.91,338.79 523.36,341.04C523.71,342.81 524.00,346.13 524.00,348.43C524.00,350.73 523.34,353.49 522.53,354.56zM472.96,352.00C471.66,352.00 470.86,351.11 470.50,349.25C470.20,347.74 469.13,343.57 468.12,340.00C467.11,336.43 465.95,332.71 465.53,331.75C464.97,330.43 465.26,330.00 466.72,330.00C467.78,330.00 469.61,331.03 470.79,332.28C471.97,333.53 473.64,336.56 474.51,339.02C475.37,341.47 476.13,344.87 476.20,346.58C476.26,348.29 475.99,350.21 475.60,350.84C475.20,351.48 474.02,352.00 472.96,352.00zM340.04,328.00C340.55,328.00 342.70,327.30 344.82,326.45C347.56,325.36 349.35,323.68 350.97,320.70C352.23,318.39 354.65,314.25 356.35,311.50C358.04,308.75 361.86,303.42 364.83,299.66C368.54,294.95 370.55,293.15 371.26,293.86C371.97,294.57 371.48,297.83 369.68,304.31C368.24,309.49 366.78,315.54 366.42,317.75C365.78,321.77 365.78,321.77 369.72,321.05C371.88,320.66 374.15,320.03 374.75,319.65C375.36,319.28 378.32,315.46 381.33,311.16C384.34,306.86 388.24,302.14 389.99,300.66C391.74,299.19 393.58,298.24 394.08,298.55C394.59,298.86 395.00,300.03 395.00,301.15C395.00,302.27 394.05,306.32 392.89,310.15C391.72,313.97 391.03,317.36 391.34,317.67C391.65,317.98 394.85,317.65 398.45,316.93C402.05,316.22 405.00,315.27 405.00,314.82C405.00,314.37 405.67,314.00 406.48,314.00C407.29,314.00 409.62,311.78 411.64,309.07C413.76,306.23 417.37,303.03 420.17,301.50C422.85,300.05 424.81,298.51 424.55,298.08C424.29,297.65 420.34,296.35 415.78,295.19C411.23,294.02 403.73,292.35 399.12,291.48C394.51,290.60 385.74,288.31 379.62,286.38C373.50,284.45 366.59,282.38 364.26,281.77C360.57,280.81 359.76,280.91 357.95,282.54C356.81,283.57 353.66,288.10 350.94,292.60C348.22,297.10 344.60,303.76 342.90,307.39C341.20,311.03 339.63,315.90 339.40,318.22C339.18,320.54 338.74,323.23 338.43,324.21C338.12,325.18 338.15,326.44 338.49,326.99C338.84,327.55 339.53,328.00 340.04,328.00zM240.02,326.49C239.52,326.80 238.68,326.26 238.17,325.28C237.66,324.30 236.52,320.96 235.62,317.85C234.73,314.74 234.03,311.36 234.06,310.35C234.09,309.31 237.26,305.93 241.31,302.62C246.80,298.13 248.58,297.13 248.83,298.39C249.01,299.29 247.81,303.96 246.17,308.77C244.53,313.57 242.69,319.39 242.07,321.71C241.45,324.02 240.53,326.17 240.02,326.49zM437.81,315.00C444.15,315.00 448.17,314.56 449.19,313.75C450.05,313.06 451.03,310.69 451.35,308.49C451.68,306.28 453.24,300.61 454.82,295.88C456.40,291.15 458.48,286.21 459.45,284.89C461.18,282.55 461.20,282.68 460.61,290.50C460.28,294.90 459.38,301.43 458.61,305.00C457.84,308.57 457.36,311.66 457.54,311.86C457.73,312.05 459.93,312.24 462.43,312.28C464.93,312.32 467.26,312.07 467.61,311.73C467.95,311.38 468.59,303.03 469.02,293.17C469.54,281.27 470.26,274.44 471.15,272.87C472.32,270.82 472.54,273.32 472.77,291.69C473.04,312.88 473.04,312.88 477.27,313.41C479.60,313.69 484.09,314.20 487.25,314.54C493.00,315.14 493.00,315.14 493.00,300.95C493.00,293.14 493.70,282.02 494.56,276.23C495.42,270.44 497.67,260.60 499.56,254.36C501.45,248.12 503.00,242.34 503.00,241.51C503.00,240.68 502.37,240.00 501.59,240.00C500.82,240.00 494.41,244.13 487.34,249.17C480.28,254.21 470.68,261.50 466.00,265.36C461.32,269.21 452.62,277.13 446.66,282.94C440.70,288.75 434.91,295.28 433.79,297.45C432.67,299.63 430.91,303.86 429.88,306.86C428.84,309.86 428.00,312.92 428.00,313.66C428.00,314.69 430.26,315.00 437.81,315.00zM248.89,272.00C249.37,272.00 254.90,269.13 261.18,265.62C267.45,262.11 275.73,257.65 279.57,255.71C283.42,253.78 292.42,249.73 299.57,246.72C306.72,243.71 318.18,239.43 325.03,237.22C331.89,235.00 342.23,232.22 348.00,231.02C353.77,229.83 360.12,228.44 362.10,227.93C365.69,227.01 365.69,227.01 366.36,207.26C366.73,196.39 367.32,179.06 367.67,168.75C368.09,156.50 367.97,150.00 367.31,150.00C366.76,150.00 359.90,157.44 352.06,166.54C344.22,175.64 333.00,188.12 327.14,194.29C321.28,200.45 314.21,207.62 311.43,210.21C308.66,212.80 303.71,216.53 300.44,218.51C297.17,220.48 287.98,225.41 280.00,229.46C272.02,233.51 264.51,237.88 263.30,239.17C262.10,240.46 259.49,245.11 257.51,249.51C255.53,253.90 252.58,260.04 250.96,263.14C249.33,266.24 248.00,269.50 248.00,270.39C248.00,271.28 248.40,272.00 248.89,272.00z" />

</svg>
